<svg width="42" height="33" viewBox="0 0 42 33" fill="none" xmlns="http://www.w3.org/2000/svg">
<rect x="4.87476" y="5.10376" width="7" height="3" rx="1" transform="rotate(-12.8475 4.87476 5.10376)" fill="#7B8FAC"/>
<rect x="0.897992" y="6.78003" width="15.5" height="25.9475" rx="2.25" transform="rotate(-12.8475 0.897992 6.78003)" stroke="#7B8FAC" stroke-width="1.5"/>
<path d="M21.8441 18.4613L23.6214 21.7859C23.971 22.4399 24.7895 22.6793 25.4365 22.3168C26.0669 21.9635 26.2977 21.1702 25.9552 20.5339L23.7515 16.4405C23.5389 16.0456 23.6777 15.5532 24.0652 15.3274L24.4544 15.1006C25.9873 14.4 29.1837 13.632 32.0735 13.6847C32.7583 13.6972 33.2674 12.9574 32.9445 12.3534L28.3342 3.72738C27.9985 3.09935 27.0586 3.15034 26.7155 3.77433C25.0859 6.73794 22.8794 7.82661 21.2356 9.07963L20.1682 9.78427L16.8387 11.8484C16.0719 12.3238 15.8237 13.3238 16.2792 14.1026L17.4788 16.1537C17.9079 16.8875 18.8212 17.1798 19.5966 16.8315L19.6259 16.8184L20.5098 17.9984L21.8441 18.4613Z" fill="white"/>
<path d="M17.6553 16.5364L16.1126 13.8178L15.4769 14.1786C15.0773 14.4053 14.9372 14.9131 15.1639 15.3127L15.8854 16.5842C16.1122 16.9838 16.62 17.1239 17.0196 16.8972L17.6553 16.5364Z" fill="white"/>
<path d="M21.8441 18.4613L23.6214 21.7859C23.971 22.4399 24.7895 22.6793 25.4365 22.3168C26.0669 21.9635 26.2977 21.1702 25.9552 20.5339L23.7515 16.4405C23.5389 16.0456 23.6777 15.5532 24.0652 15.3274L24.4544 15.1006C25.9873 14.4 29.1837 13.632 32.0735 13.6847C32.7583 13.6972 33.2674 12.9574 32.9445 12.3534L28.3342 3.72738C27.9985 3.09935 27.0586 3.15034 26.7155 3.77433C25.0859 6.73794 22.8794 7.82661 21.2356 9.07963L20.1682 9.78427L16.8387 11.8484C16.0719 12.3238 15.8237 13.3238 16.2792 14.1026L17.4788 16.1537C17.9079 16.8875 18.8212 17.1798 19.5966 16.8315L19.6259 16.8184L20.5098 17.9984L21.8441 18.4613Z" stroke="#043071" stroke-width="1.5" stroke-linecap="round"/>
<path d="M17.6553 16.5364L16.1126 13.8178L15.4769 14.1786C15.0773 14.4053 14.9372 14.9131 15.1639 15.3127L15.8854 16.5842C16.1122 16.9838 16.62 17.1239 17.0196 16.8972L17.6553 16.5364Z" stroke="#043071" stroke-width="1.5" stroke-linecap="round"/>
<path d="M30.7189 6.13419L32.287 9.09465L32.322 8.99618C32.5157 8.45103 32.479 7.85049 32.2202 7.33302L31.9921 6.87676C31.7529 6.39833 31.2531 6.10686 30.7189 6.13419Z" fill="#043071" stroke="#043071" stroke-width="1.5" stroke-linecap="round"/>
<path d="M32.3114 4.31577L33.429 1.14274" stroke="#043071" stroke-width="1.5" stroke-linecap="round"/>
<path d="M34.6776 5.55159L37.7115 4.09813" stroke="#043071" stroke-width="1.5" stroke-linecap="round"/>
<path d="M34.6778 8.88474L37.8922 9.87703" stroke="#043071" stroke-width="1.5" stroke-linecap="round"/>
</svg>
