<svg width="30" height="35" viewBox="0 0 30 35" fill="none" xmlns="http://www.w3.org/2000/svg">
<path d="M6.10336 26.7573L1.20947 26.7208L7.07141 15.0063L15.5197 19.2339L9.65772 30.9483L6.69468 27.0532L6.47168 26.76L6.10336 26.7573Z" fill="white" stroke="#043071" stroke-width="1.5"/>
<path d="M22.663 29.3131L19.594 33.1451L13.9943 20.9312L22.5818 16.9941L28.1815 29.2081L23.2752 29.0324L22.8985 29.019L22.663 29.3131Z" fill="white" stroke="#043071" stroke-width="1.5"/>
<circle cx="15" cy="11" r="10.25" fill="white" stroke="#043071" stroke-width="1.5"/>
<path d="M14.1902 5.42898C14.4147 4.738 15.3923 4.738 15.6168 5.42898L16.1855 7.17943C16.4868 8.10648 17.3507 8.73415 18.3254 8.73415H20.166C20.8925 8.73415 21.1946 9.66386 20.6068 10.0909L19.1178 11.1727C18.3292 11.7457 17.9992 12.7613 18.3004 13.6883L18.8692 15.4388C19.0937 16.1298 18.3028 16.7044 17.715 16.2773L16.226 15.1955C15.4374 14.6225 14.3696 14.6225 13.581 15.1955L12.092 16.2773C11.5042 16.7044 10.7133 16.1298 10.9378 15.4388L11.5066 13.6883C11.8078 12.7613 11.4778 11.7457 10.6892 11.1727L9.20019 10.0909C8.61241 9.66386 8.91449 8.73415 9.64103 8.73415H11.4816C12.4563 8.73415 13.3202 8.10649 13.6214 7.17943L14.1902 5.42898Z" stroke="#043071" stroke-width="1.5"/>
</svg>
