<svg width="31" height="39" viewBox="0 0 31 39" fill="none" xmlns="http://www.w3.org/2000/svg">
<path d="M15.7682 25.2618L18.9714 22.0972L23.8254 23.0672C26.3532 23.5724 28.4589 25.3121 29.4319 27.6991C29.8071 28.6195 30 29.6039 30 30.5978V34.0995C30 36.3086 28.2091 38.0995 26 38.0995H5C2.79086 38.0995 1 36.3087 1 34.0995V31.5416C1 30.2733 1.30158 29.0231 1.87985 27.8942L2.2028 27.2638C3.30072 25.1205 5.30567 23.5858 7.66125 23.0857L12.3161 22.0972L15.7682 25.2618Z" stroke="#7B8FAC" stroke-width="1.5" stroke-linecap="round"/>
<path d="M12.4331 21.8141V18.9328M18.9325 21.5699V18.4053" stroke="#7B8FAC" stroke-width="1.5" stroke-linecap="round"/>
<path d="M9.47552 6.95079C10.1095 7.16274 10.7873 7.27196 11.3242 7.34533C11.2253 7.80211 11.502 8.12909 11.6635 8.26876C11.8402 8.42165 12.0598 8.52551 12.2561 8.5994C12.4644 8.67783 12.7043 8.74356 12.9624 8.79715C13.9837 9.00924 15.4974 9.07334 17.032 8.80515C17.9839 8.63881 18.8351 8.19669 19.5724 7.77691C19.7367 7.68336 19.894 7.59187 20.046 7.50348C20.3859 7.30582 20.6992 7.12366 21.0042 6.96853C21.0874 7.11824 21.173 7.26651 21.2578 7.41197C21.2975 7.48005 21.337 7.5475 21.3762 7.61451C21.5485 7.90868 21.7157 8.19427 21.8716 8.48694C22.2575 9.21161 22.507 9.86323 22.507 10.4828C22.507 15.576 19.4697 19.3985 15.3477 19.3985C11.2257 19.3985 8.18848 15.576 8.18848 10.4828C8.18848 10.2555 8.263 9.89229 8.41547 9.42393C8.56267 8.97176 8.76249 8.48058 8.96777 8.01997C9.14828 7.61494 9.32935 7.2417 9.47552 6.95079ZM12.5922 7.97329C12.5916 7.97316 12.5963 7.96985 12.6078 7.96378C12.5985 7.97038 12.5928 7.97342 12.5922 7.97329Z" stroke="#7B8FAC" stroke-width="1.5"/>
<path d="M7.85457 11.4069C7.13675 10.2527 6.79015 6.10525 8.29756 4.24168C9.51979 2.73069 10.3545 2.82618 10.8256 3.07801C11.7004 1.88181 13.7991 0.978926 15.8728 1.00037C18.1034 1.02345 20.3463 1.60073 21.8621 3.70757C23.3778 5.81441 23.6731 9.32554 22.8406 11.4069" stroke="#7B8FAC" stroke-width="1.5" stroke-linecap="round"/>
<path d="M15.7681 25.262V37.393" stroke="#7B8FAC" stroke-width="1.5"/>
<path d="M9.43896 22.0972V30.5362" stroke="#043071" stroke-width="1.5"/>
<circle cx="9.43884" cy="30.5363" r="2.10974" fill="#043071"/>
<path d="M22.0976 22.0972L22.0977 25.2618M22.0977 25.2618C19.1441 25.2618 18.7573 30.5362 18.9331 33.1734L20.5153 33.7008M22.0977 25.2618C23.3284 25.086 25.6842 26.4222 25.2622 33.1734L23.6799 33.7008" stroke="#043071" stroke-width="1.5"/>
</svg>
