<svg width="1150" height="575" viewBox="0 0 1150 575" fill="none" xmlns="http://www.w3.org/2000/svg">
<g opacity="0.6" filter="url(#filter0_f)">
<circle opacity="0.3" cx="747.312" cy="434.937" r="131.312" fill="#E389D1"/>
<circle opacity="0.3" cx="1009.94" cy="434.937" r="131.312" fill="#E389D1"/>
<circle opacity="0.3" cx="1009.94" cy="172.312" r="131.312" fill="#E389D1"/>
<circle opacity="0.3" cx="747.312" cy="172.312" r="131.312" fill="#E389D1"/>
</g>
<g opacity="0.05" filter="url(#filter1_f)">
<path d="M334.624 133.516C328 133.516 321.798 132.512 316.019 128.706C310.382 125.042 305.835 119.156 305.835 119.156V131.243H294.666V7.99997H305.835V67.0351C305.835 67.0351 309.63 62.6129 315.408 58.5255C321.187 54.5791 329.103 52.6752 336.15 52.6752C357.956 52.6752 374.975 69.6943 374.975 89.3727C374.975 113.462 360.149 133.516 334.624 133.516ZM334.624 125.007C353.309 125.007 362.954 109.394 362.954 92.032C362.954 75.0303 351.042 62.3211 336.15 62.3211C319.131 62.3211 304.771 74.481 304.771 90.9683C304.771 110.115 314.009 125.007 334.624 125.007Z" fill="#043071"/>
<path d="M435.606 133.569C410.077 133.569 394.654 119.156 394.654 89.3727C394.654 77.6721 401.238 52.1434 432.947 52.1434C466.081 52.1434 470.061 81.9268 470.061 96.366H406.886C406.886 106.514 410.853 124.475 435.606 124.475C448.902 124.475 458.733 113.061 458.733 113.061L465.921 118.347C465.921 118.347 455.816 133.569 435.606 133.569ZM406.354 87.2453H458.733C458.733 82.9905 455.709 61.1848 432.415 61.1848C407.95 61.1848 406.354 87.2453 406.354 87.2453Z" fill="#043071"/>
<path d="M493.577 126.07C483.648 118.127 485.26 101.274 494.605 93.6275C507.837 82.5496 525.77 84.4894 541.976 84.5861V79.7995C541.976 67.0351 529.839 61.1848 520.702 61.1848C506.99 61.1848 498.364 69.6943 498.364 69.6943L492.514 62.7803C505.81 51.6115 527.344 48.6568 541.444 57.9937C549.953 63.6288 553.168 73.8215 553.168 81.9268C553.168 105.465 553.168 107.705 553.168 131.243H543.231L543.039 118.624C543.039 118.624 537.899 126.833 532.402 129.793C520.306 136.306 504.182 134.506 493.577 126.07ZM541.444 105.45L541.976 93.0956C531.339 93.6275 513.829 92.1948 503.683 101.073C497.062 106.66 499.346 117.029 504.746 121.284C515.383 129.664 539.848 119.688 541.444 105.45Z" fill="#043071"/>
<path d="M610.299 133.569C594.947 133.569 580.321 126.07 580.321 105.45V55.3344H591.437V105.45C591.437 117.591 598.551 124.475 610.299 124.475C626.654 124.475 633.41 111.768 636.113 96.7822V55.3344H646.75V131.243H636.113V115.387C635.049 121.284 625.381 133.569 610.299 133.569Z" fill="#043071"/>
<path d="M678.343 115.176V63.3122H662.255V54.6308H678.343V33.304H689.991V54.6308H710.762V63.3122H689.991V115.176C689.991 123.797 701.121 126.176 709.508 121.284L710.762 130.398C693.02 137.771 678.343 130.121 678.343 115.176Z" fill="#043071"/>
<path d="M720.145 170.214V160.109C741.419 164.363 743.099 148.417 749.396 131.243L717.968 54.6308H728.122L754.715 118.624L779.976 54.6308H790.349L751.524 153.726C745.561 169.732 736.1 172.341 720.145 170.214Z" fill="#043071"/>
<path d="M104.797 130.91C79.2678 130.91 63.8442 116.497 63.8442 86.7136C63.8442 75.013 70.429 49.4843 102.137 49.4843C135.272 49.4843 139.251 79.2678 139.251 93.7069H76.0767C76.0767 103.855 80.0432 121.816 104.797 121.816C118.093 121.816 127.924 110.402 127.924 110.402L135.112 115.688C135.112 115.688 125.007 130.91 104.797 130.91ZM75.5449 84.5863H127.924C127.924 80.3315 124.899 58.5257 101.605 58.5257C77.1404 58.5257 75.5449 84.5863 75.5449 84.5863Z" fill="#043071"/>
<path d="M37.2516 49.4843H27.6784V149.472C27.6784 159.683 16.5096 162.768 8 160.109V168.086C30.3376 173.405 37.2516 157.981 37.2516 149.472V49.4843Z" fill="#043071"/>
<circle cx="32.9969" cy="16.5096" r="7.44587" fill="#043071"/>
<circle cx="223.398" cy="122.879" r="7.44587" fill="#043071"/>
<path fill-rule="evenodd" clip-rule="evenodd" d="M151.067 34.5926H201.061V44.1659H151.067V34.5926ZM151.067 48.4206H201.061V57.9938H178.191V112.774C178.191 121.815 192.019 122.879 201.593 117.029V127.134C178.617 136.069 168.086 122.879 168.086 112.774V57.9938H151.067V48.4206Z" fill="#043071"/>
</g>
<defs>
<filter id="filter0_f" x="608" y="33" width="541.25" height="541.25" filterUnits="userSpaceOnUse" color-interpolation-filters="sRGB">
<feFlood flood-opacity="0" result="BackgroundImageFix"/>
<feBlend mode="normal" in="SourceGraphic" in2="BackgroundImageFix" result="shape"/>
<feGaussianBlur stdDeviation="4" result="effect1_foregroundBlur"/>
</filter>
<filter id="filter1_f" x="0" y="-3.05176e-05" width="798.349" height="178.854" filterUnits="userSpaceOnUse" color-interpolation-filters="sRGB">
<feFlood flood-opacity="0" result="BackgroundImageFix"/>
<feBlend mode="normal" in="SourceGraphic" in2="BackgroundImageFix" result="shape"/>
<feGaussianBlur stdDeviation="4" result="effect1_foregroundBlur"/>
</filter>
</defs>
</svg>
