<svg width="355" height="223" viewBox="0 0 355 223" fill="none" xmlns="http://www.w3.org/2000/svg">
<g opacity="0.2" filter="url(#filter0_f)">
<path d="M104.167 88.4924C102.135 88.4924 100.233 88.1844 98.461 87.0173C96.7321 85.8935 95.3378 84.0886 95.3378 84.0886V87.7954H91.9126V50H95.3378V68.1045C95.3378 68.1045 96.5014 66.7483 98.2736 65.4948C100.046 64.2845 102.473 63.7007 104.635 63.7007C111.322 63.7007 116.541 68.92 116.541 74.9548C116.541 82.3424 111.994 88.4924 104.167 88.4924ZM104.167 85.8827C109.897 85.8827 112.855 81.0949 112.855 75.7703C112.855 70.5564 109.202 66.6588 104.635 66.6588C99.4153 66.6588 95.0116 70.3879 95.0116 75.4441C95.0116 81.3158 97.8444 85.8827 104.167 85.8827Z" fill="#043071"/>
<path d="M135.135 88.5086C127.306 88.5086 122.576 84.0886 122.576 74.9548C122.576 71.3665 124.595 63.5376 134.319 63.5376C144.481 63.5376 145.701 72.6714 145.701 77.0995H126.327C126.327 80.2116 127.544 85.7196 135.135 85.7196C139.213 85.7196 142.227 82.2195 142.227 82.2195L144.432 83.8404C144.432 83.8404 141.333 88.5086 135.135 88.5086ZM126.164 74.3024H142.227C142.227 72.9976 141.3 66.3103 134.156 66.3103C126.654 66.3103 126.164 74.3024 126.164 74.3024Z" fill="#043071"/>
<path d="M152.913 86.2089C149.868 83.773 150.362 78.6046 153.228 76.2596C157.286 72.8623 162.786 73.4572 167.756 73.4869V72.0189C167.756 68.1045 164.034 66.3103 161.231 66.3103C157.026 66.3103 154.381 68.92 154.381 68.92L152.587 66.7996C156.665 63.3745 163.269 62.4683 167.592 65.3317C170.202 67.0598 171.188 70.1857 171.188 72.6714C171.188 79.8898 171.188 80.577 171.188 87.7954H168.141L168.082 83.9255C168.082 83.9255 166.505 86.4429 164.82 87.3506C161.11 89.3481 156.165 88.7958 152.913 86.2089ZM167.592 79.8854L167.756 76.0965C164.494 76.2596 159.124 75.8203 156.012 78.5431C153.982 80.2562 154.682 83.4362 156.338 84.741C159.6 87.3111 167.103 84.2517 167.592 79.8854Z" fill="#043071"/>
<path d="M188.709 88.5086C184.001 88.5086 179.515 86.2089 179.515 79.8854V64.5162H182.924V79.8854C182.924 83.6085 185.106 85.7196 188.709 85.7196C193.724 85.7196 195.796 81.8228 196.625 77.2271V64.5162H199.887V87.7954H196.625V82.9327C196.299 84.741 193.334 88.5086 188.709 88.5086Z" fill="#043071"/>
<path d="M209.576 82.8678V66.9627H204.642V64.3004H209.576V57.7601H213.148V64.3004H219.518V66.9627H213.148V82.8678C213.148 85.5118 216.561 86.2413 219.133 84.741L219.518 87.536C214.077 89.7972 209.576 87.4512 209.576 82.8678Z" fill="#043071"/>
<path d="M222.395 99.7465V96.6475C228.919 97.9524 229.435 93.0621 231.366 87.7954L221.728 64.3004H224.842L232.997 83.9255L240.744 64.3004H243.925L232.018 94.6903C230.19 99.5988 227.288 100.399 222.395 99.7465Z" fill="#043071"/>
<path d="M33.6849 87.6931C25.856 87.6931 21.126 83.2731 21.126 74.1393C21.126 70.551 23.1454 62.7221 32.8694 62.7221C43.0308 62.7221 44.2512 71.8559 44.2512 76.284H24.8774C24.8774 79.3961 26.0938 84.9041 33.6849 84.9041C37.7625 84.9041 40.7774 81.404 40.7774 81.404L42.9818 83.0249C42.9818 83.0249 39.8829 87.6931 33.6849 87.6931ZM24.7142 73.4869H40.7774C40.7774 72.1821 39.8499 65.4948 32.7063 65.4948C25.2036 65.4948 24.7142 73.4869 24.7142 73.4869Z" fill="#043071"/>
<path d="M12.9707 62.7221H10.0348V93.3855C10.0348 96.5171 6.60965 97.4631 4 96.6476V99.0941C10.8503 100.725 12.9707 95.9952 12.9707 93.3855V62.7221Z" fill="#043071"/>
<circle cx="11.6658" cy="52.6097" r="2.28345" fill="#043071"/>
<circle cx="70.0569" cy="85.2303" r="2.28345" fill="#043071"/>
<path fill-rule="evenodd" clip-rule="evenodd" d="M47.875 58.1552H63.2067V61.0911H47.875V58.1552ZM47.875 62.3959H63.2067V65.3317H56.1932V82.1313C56.1932 84.9041 60.4339 85.2303 63.3698 83.4361V86.5351C56.3237 89.2752 53.0943 85.2303 53.0943 82.1313V65.3317H47.875V62.3959Z" fill="#043071"/>
</g>
<g opacity="0.9" filter="url(#filter1_f)">
<circle opacity="0.3" cx="191.75" cy="163.25" r="51.75" fill="#E389D1"/>
<circle opacity="0.3" cx="295.25" cy="163.25" r="51.75" fill="#E389D1"/>
<circle opacity="0.3" cx="295.25" cy="59.75" r="51.75" fill="#E389D1"/>
<circle opacity="0.3" cx="191.75" cy="59.75" r="51.75" fill="#E389D1"/>
</g>
<defs>
<filter id="filter0_f" x="0" y="46" width="247.925" height="57.9429" filterUnits="userSpaceOnUse" color-interpolation-filters="sRGB">
<feFlood flood-opacity="0" result="BackgroundImageFix"/>
<feBlend mode="normal" in="SourceGraphic" in2="BackgroundImageFix" result="shape"/>
<feGaussianBlur stdDeviation="2" result="effect1_foregroundBlur"/>
</filter>
<filter id="filter1_f" x="132" y="0" width="223" height="223" filterUnits="userSpaceOnUse" color-interpolation-filters="sRGB">
<feFlood flood-opacity="0" result="BackgroundImageFix"/>
<feBlend mode="normal" in="SourceGraphic" in2="BackgroundImageFix" result="shape"/>
<feGaussianBlur stdDeviation="4" result="effect1_foregroundBlur"/>
</filter>
</defs>
</svg>
