<svg width="202" height="193" viewBox="0 0 202 193" fill="none" xmlns="http://www.w3.org/2000/svg">
<path d="M100.955 6.50529L100.836 8.00058L100.955 6.50529ZM148.847 27.8661L143.897 11.2681L131.997 23.8541L148.847 27.8661ZM43.1396 31.3861C44.1125 30.25 45.3483 28.959 46.8302 27.5788L44.7856 25.3835C43.2324 26.8301 41.9165 28.2021 40.8609 29.4348L43.1396 31.3861ZM55.2297 20.9024C57.9952 19.0111 61.0981 17.1482 64.497 15.4472L63.1544 12.7644C59.6259 14.5303 56.4061 16.4633 53.5362 18.4261L55.2297 20.9024ZM74.4172 11.3266C77.7088 10.2302 81.1826 9.33547 84.8143 8.72133L84.3141 5.76333C80.5202 6.40489 76.8967 7.33867 73.4691 8.48038L74.4172 11.3266ZM95.4831 7.79866C97.2403 7.79182 99.0252 7.85671 100.836 8.00058L101.073 5.01001C99.1786 4.85944 97.3105 4.79152 95.4715 4.79869L95.4831 7.79866ZM100.836 8.00058C103.101 8.18056 105.283 8.44045 107.383 8.76893L107.846 5.80497C105.671 5.46478 103.414 5.19601 101.073 5.01001L100.836 8.00058ZM120.157 11.8439C124.701 13.3503 128.708 15.1551 132.195 17.0605L133.633 14.4278C129.997 12.4408 125.825 10.5624 121.101 8.99628L120.157 11.8439Z" fill="#053071"/>
<path d="M146.195 164.815L163.497 165.624L155.547 150.235L146.195 164.815ZM172.294 68.8294C173.089 70.0274 173.955 71.498 174.838 73.208L177.504 71.8317C176.577 70.0371 175.656 68.4706 174.794 67.1706L172.294 68.8294ZM178.818 82.64C179.851 85.6777 180.766 89.0099 181.45 92.5591L184.396 91.9918C183.684 88.2976 182.732 84.8322 181.658 81.6741L178.818 82.64ZM182.653 102.728C182.796 106.041 182.693 109.459 182.275 112.934L185.254 113.292C185.692 109.644 185.799 106.062 185.65 102.599L182.653 102.728ZM180.184 122.914C179.697 124.516 179.132 126.12 178.483 127.723L181.263 128.849C181.947 127.162 182.542 125.473 183.054 123.787L180.184 122.914ZM178.483 127.723C177.675 129.718 176.813 131.613 175.908 133.411L178.587 134.76C179.529 132.889 180.424 130.92 181.263 128.849L178.483 127.723ZM169.372 144C166.662 147.621 163.818 150.665 161.027 153.209L163.047 155.427C165.97 152.763 168.944 149.579 171.774 145.797L169.372 144Z" fill="#053071"/>
<path d="M13.9 110.065L7.00206 125.953L24.2102 123.983L13.9 110.065ZM94.3699 168.537C92.9678 168.855 91.2855 169.142 89.3735 169.361L89.7138 172.341C91.7205 172.112 93.5118 171.807 95.0333 171.462L94.3699 168.537ZM79.143 169.733C75.9364 169.62 72.4962 169.294 68.9355 168.673L68.4202 171.628C72.1264 172.274 75.7041 172.614 79.0379 172.731L79.143 169.733ZM59.0018 166.188C55.8536 165.145 52.6947 163.836 49.5942 162.212L48.2022 164.869C51.4575 166.575 54.7676 167.946 58.0583 169.036L59.0018 166.188ZM41.0065 156.714C39.6824 155.69 38.383 154.593 37.1147 153.417L35.0747 155.616C36.4099 156.855 37.7779 158.01 39.1719 159.087L41.0065 156.714ZM37.1147 153.417C35.5362 151.953 34.0712 150.475 32.7114 148.99L30.4993 151.017C31.914 152.561 33.4365 154.097 35.0747 155.616L37.1147 153.417ZM25.1323 139.122C22.7088 135.303 20.8722 131.564 19.4847 128.051L16.6944 129.153C18.1472 132.831 20.0681 136.74 22.5993 140.729L25.1323 139.122Z" fill="#053071"/>
</svg>
