<svg width="28" height="29" viewBox="0 0 28 29" fill="none" xmlns="http://www.w3.org/2000/svg">
<path d="M18.6248 23.0872L20.452 21.4546L23.1543 21.9723C24.4478 22.2202 25.5329 23.096 26.0482 24.3081C26.2563 24.7976 26.3635 25.324 26.3633 25.8558L26.3632 26.3753C26.3629 27.2727 25.6353 28 24.738 28H12.1595C11.4187 28 10.8183 27.3994 10.8186 26.6587L10.8186 26.4771C10.8189 25.7152 11.0068 24.965 11.3659 24.293C12.017 23.0743 13.1776 22.2093 14.5315 21.9337L16.8846 21.4546L18.6248 23.0872Z" stroke="#043071" stroke-width="1.5" stroke-linecap="round"/>
<path d="M16.7749 21.5137V19.8066M20.6256 21.3691V19.4941" stroke="#043071" stroke-width="1.5" stroke-linecap="round"/>
<path d="M15.8129 13.2054C15.8615 13.4596 16.0244 13.638 16.1184 13.7193C16.2629 13.8443 16.4318 13.9212 16.5618 13.9701C16.7039 14.0236 16.8621 14.0665 17.0258 14.1005C17.6699 14.2343 18.6057 14.2724 19.5518 14.1071C20.1717 13.9987 20.7154 13.713 21.1555 13.4624C21.2605 13.4026 21.3586 13.3456 21.4514 13.2917C21.5514 13.2335 21.6453 13.179 21.7352 13.1283C21.7364 13.1304 21.7376 13.1324 21.7387 13.1345C21.763 13.1761 21.7869 13.2169 21.8104 13.2571C21.9122 13.431 22.0075 13.5937 22.0967 13.7611C22.3194 14.1794 22.4373 14.5105 22.4373 14.8C22.4373 17.7177 20.7131 19.7767 18.5012 19.7767C16.2894 19.7767 14.5652 17.7177 14.5652 14.8C14.5652 14.7151 14.5967 14.5374 14.6847 14.2672C14.7674 14.0132 14.8812 13.7328 15.0004 13.4652C15.0623 13.3264 15.1244 13.1939 15.1823 13.0737C15.4005 13.132 15.6171 13.1738 15.8129 13.2054Z" stroke="#043071" stroke-width="1.5"/>
<path d="M14.0621 15.3475C13.6368 14.6636 13.4315 12.2064 14.3246 11.1023C15.0487 10.207 15.5433 10.2636 15.8224 10.4128C16.3407 9.70409 17.5841 9.16915 18.8127 9.18186C20.1343 9.19553 21.4632 9.53756 22.3612 10.7858C23.2593 12.0341 23.4342 14.1143 22.941 15.3475" stroke="#043071" stroke-width="1.5" stroke-linecap="round"/>
<path d="M9.63276 22.7018C9.54913 22.7018 9.42749 22.6968 9.31544 22.6687C4.53794 21.4708 1 17.1482 1 11.9992C1 5.92452 5.92452 1 11.9992 1C16.6865 1 21.1509 3.51886 22.2727 8.06178" stroke="#043071" stroke-width="1.5" stroke-linejoin="bevel"/>
<path d="M1.55509 15.3957C0.676312 12.4524 2.81855 11.7432 3.76779 12.0603C4.01338 12.1423 4.21729 12.3258 4.39569 12.5135C5.07861 13.2319 5.74486 14.756 7.61939 13.6695C7.73976 13.5998 7.85307 13.5116 7.94979 13.4116C9.94072 11.3529 6.86158 10.0031 7.33932 7.54609C7.82843 5.03064 14.3284 5.4814 12.8849 1.17822" stroke="#043071" stroke-width="1.5" stroke-linejoin="bevel"/>
</svg>
