<svg width="114" height="71" viewBox="0 0 114 71" fill="none" xmlns="http://www.w3.org/2000/svg">
<rect x="19.3742" y="3.03448" width="15.1923" height="33.5319" rx="5.5" transform="rotate(29.6317 19.3742 3.03448)" stroke="#7B8FAC" stroke-width="3"/>
<path d="M32.4832 13.7843C31.9013 13.1946 30.9516 13.1883 30.3619 13.7702C29.7723 14.3521 29.766 15.3018 30.3479 15.8915L32.4832 13.7843ZM30.3479 15.8915C32.9744 18.5531 36.0605 19.9721 38.4898 20.7612C39.7088 21.1572 40.7758 21.3988 41.5495 21.5575C42.0049 21.6509 42.179 21.681 42.4497 21.7373C42.557 21.7596 42.6111 21.7726 42.6334 21.7787C42.6446 21.7818 42.6246 21.7769 42.5875 21.7629C42.5704 21.7564 42.4411 21.7092 42.2912 21.6005L44.0525 19.1719C43.8789 19.046 43.7139 18.9815 43.6494 18.9571C43.565 18.9251 43.4861 18.9018 43.4271 18.8856C43.3093 18.8533 43.1786 18.8247 43.0606 18.8001C42.8806 18.7627 42.4415 18.678 42.1523 18.6187C41.4368 18.472 40.4891 18.2563 39.4167 17.908C37.2633 17.2085 34.6603 15.9904 32.4832 13.7843L30.3479 15.8915Z" fill="#7B8FAC"/>
<path d="M20.1293 35.8184C19.6394 35.1504 18.7007 35.0059 18.0327 35.4958C17.3646 35.9857 17.2202 36.9244 17.7101 37.5925L20.1293 35.8184ZM18.9197 36.7054C17.7101 37.5925 17.7101 37.5926 17.7102 37.5927C17.7103 37.5928 17.7104 37.5929 17.7105 37.5931C17.7107 37.5933 17.7109 37.5937 17.7112 37.5941C17.7118 37.5949 17.7126 37.596 17.7137 37.5974C17.7157 37.6001 17.7185 37.604 17.7222 37.609C17.7295 37.6189 17.7401 37.6333 17.7538 37.6517C17.7812 37.6887 17.821 37.7422 17.8722 37.8104C17.9746 37.9469 18.1226 38.1426 18.3076 38.3827C18.6773 38.8622 19.1971 39.522 19.7979 40.243C20.9713 41.6512 22.5521 43.4136 23.9552 44.4659L25.7552 42.0659C24.6591 41.2438 23.2721 39.726 22.1026 38.3225C21.5319 37.6377 21.0364 37.0088 20.6837 36.5512C20.5075 36.3227 20.3675 36.1376 20.2722 36.0105C20.2246 35.9469 20.1881 35.898 20.1639 35.8653C20.1519 35.849 20.1428 35.8368 20.137 35.8289C20.1341 35.825 20.132 35.8221 20.1307 35.8203C20.1301 35.8195 20.1296 35.8189 20.1294 35.8185C20.1293 35.8184 20.1292 35.8183 20.1292 35.8183C20.1292 35.8183 20.1292 35.8183 20.1292 35.8183C20.1292 35.8183 20.1293 35.8184 18.9197 36.7054Z" fill="#7B8FAC"/>
<path d="M58.4188 55.9964C57.6923 55.5983 56.7807 55.8647 56.3826 56.5912C55.9846 57.3178 56.2509 58.2294 56.9775 58.6274L58.4188 55.9964ZM63.0301 48.5022C62.3014 48.1083 61.3912 48.3797 60.9973 49.1085C60.6033 49.8372 60.8747 50.7474 61.6035 51.1413L63.0301 48.5022ZM67.5968 41.0437C66.8855 40.6191 65.9646 40.8515 65.54 41.5629C65.1154 42.2742 65.3479 43.1951 66.0592 43.6197L67.5968 41.0437ZM87.9879 49.8218L86.7336 48.9991L87.9879 49.8218ZM54.5335 64.6369L53.3129 63.7651L51.5691 66.2063L52.7897 67.0781L54.5335 64.6369ZM56.9775 58.6274L68.4704 64.9235L69.9117 62.2924L58.4188 55.9964L56.9775 58.6274ZM61.6035 51.1413L75.4594 58.6314L76.886 55.9923L63.0301 48.5022L61.6035 51.1413ZM66.0592 43.6197L82.0634 53.1723L83.601 50.5963L67.5968 41.0437L66.0592 43.6197ZM82.27 53.2749C83.1627 53.6358 84.3704 53.81 85.651 53.4522C86.9602 53.0864 88.2227 52.1988 89.2422 50.6444L86.7336 48.9991C86.0662 50.0167 85.3774 50.4137 84.8437 50.5628C84.2815 50.7199 83.7548 50.6393 83.3943 50.4936L82.27 53.2749ZM89.2422 50.6444C90.4592 48.7889 90.8951 47.2026 90.8583 45.876C90.8212 44.5409 90.3101 43.6366 89.9383 43.1453L87.546 44.9555C87.6397 45.0793 87.8438 45.3951 87.8594 45.9592C87.8753 46.5317 87.7013 47.5235 86.7336 48.9991L89.2422 50.6444ZM75.5064 58.6558C76.7119 59.2534 78.6947 59.6948 80.5819 58.7739C82.5497 57.8137 83.9033 55.6321 84.322 52.0588L81.3424 51.7097C80.9877 54.7364 79.9604 55.7391 79.2662 56.0778C78.4914 56.4559 77.5312 56.3112 76.839 55.968L75.5064 58.6558ZM68.6944 65.0233C70.1684 65.5406 72.5464 65.8926 74.571 64.8304C76.7992 63.6614 77.997 61.1352 77.6675 57.1871L74.6779 57.4366C74.95 60.6965 73.9459 61.7706 73.1773 62.1738C72.2052 62.6838 70.7915 62.5799 69.6877 62.1925L68.6944 65.0233ZM52.7897 67.0781C53.5461 67.6184 54.8303 68.1489 56.2512 68.5516C57.7135 68.966 59.4789 69.2898 61.2751 69.3339C64.7697 69.4197 69.0055 68.4156 70.5972 64.1302L67.7849 63.0856C66.8847 65.5093 64.4492 66.411 61.3487 66.3348C59.8473 66.2979 58.3342 66.0238 57.0692 65.6653C55.7627 65.295 54.8705 64.8777 54.5335 64.6369L52.7897 67.0781Z" fill="#7B8FAC"/>
<rect x="81.6545" y="10.6235" width="14.9536" height="33.5319" rx="5.5" transform="rotate(-30 81.6545 10.6235)" stroke="#7B8FAC" stroke-width="3"/>
<rect x="38.9717" y="41.2413" width="6.96825" height="17.0191" rx="3.48412" transform="rotate(36.9601 38.9717 41.2413)" stroke="#7B8FAC" stroke-width="3"/>
<rect x="44.6092" y="48.1779" width="6.96825" height="15.1824" rx="3.48412" transform="rotate(36.9601 44.6092 48.1779)" stroke="#7B8FAC" stroke-width="3"/>
<path d="M83.1492 15.1045C81.9882 15.6858 77.4456 17.0446 73.7884 15.6495C69.2168 13.9056 53.6517 13.5786 49.189 15.6495C44.7262 17.7204 39.937 26.5489 39.175 28.2929C38.4131 30.0368 37.4335 34.6145 43.8555 32.4347C48.993 30.6907 51.511 27.4209 52.1278 26.004C53.3251 25.8223 55.8939 25.241 56.5905 24.369L87.3942 44.2061L96.102 37.8844" stroke="#7B8FAC" stroke-width="3" stroke-linecap="round"/>
<rect x="29.5272" y="39.4465" width="6.59163" height="10.3666" rx="3.29582" transform="rotate(36.9601 29.5272 39.4465)" stroke="#7B8FAC" stroke-width="3"/>
<rect x="49.8807" y="55.6552" width="6.96825" height="11.0164" rx="3.48412" transform="rotate(36.9601 49.8807 55.6552)" stroke="#7B8FAC" stroke-width="3"/>
</svg>
