<svg width="31" height="36" viewBox="0 0 31 36" fill="none" xmlns="http://www.w3.org/2000/svg">
<path d="M0.75 8C0.75 6.75736 1.75736 5.75 3 5.75H28C29.2426 5.75 30.25 6.75736 30.25 8V35.25H0.75V8Z" stroke="#7B8FAC" stroke-width="1.5"/>
<path d="M8.75 3C8.75 1.75736 9.75736 0.75 11 0.75H20C21.2426 0.75 22.25 1.75736 22.25 3V12C22.25 13.2426 21.2426 14.25 20 14.25H11C9.75736 14.25 8.75 13.2426 8.75 12V3Z" fill="#043071" stroke="#043071" stroke-width="1.5"/>
<rect x="4" y="17" width="5" height="5" rx="1" fill="#7B8FAC"/>
<rect x="4" y="25" width="5" height="6" rx="1" fill="#7B8FAC"/>
<rect x="12" y="17" width="7" height="5" rx="1" fill="#7B8FAC"/>
<rect x="14" y="2" width="3" height="11" fill="white"/>
<rect x="21" y="6" width="3" height="11" transform="rotate(90 21 6)" fill="white"/>
<rect x="12" y="25" width="7" height="11" rx="1" fill="#7B8FAC"/>
<rect x="22" y="17" width="5" height="5" rx="1" fill="#7B8FAC"/>
<rect x="22" y="25" width="5" height="6" rx="1" fill="#7B8FAC"/>
</svg>
