<svg width="375" height="1385" viewBox="0 0 375 1385" fill="none" xmlns="http://www.w3.org/2000/svg">
<path d="M530.224 925.267L-289.107 0.0135498L-369.5 408.428L530.224 925.267Z" fill="#043071"/>
<path d="M60.3735 395.415L989.223 720.348L858.308 1384.86L60.3735 395.415Z" fill="#EEABE0"/>
<circle cx="114.224" cy="645.044" r="16.1838" fill="#E389D1"/>
<circle cx="146.592" cy="645.044" r="16.1838" fill="#E389D1"/>
<circle cx="146.592" cy="612.676" r="16.1838" fill="#E389D1"/>
<circle cx="114.224" cy="612.676" r="16.1838" fill="#E389D1"/>
<path d="M180.027 624.365C178.161 624.365 176.414 624.082 174.785 623.009C173.197 621.977 171.916 620.319 171.916 620.319V623.724H168.769V589H171.916V605.633C171.916 605.633 172.985 604.387 174.613 603.236C176.241 602.124 178.472 601.587 180.457 601.587C186.601 601.587 191.396 606.383 191.396 611.927C191.396 618.714 187.219 624.365 180.027 624.365ZM180.027 621.967C185.292 621.967 188.009 617.568 188.009 612.676C188.009 607.886 184.653 604.305 180.457 604.305C175.662 604.305 171.616 607.731 171.616 612.377C171.616 617.771 174.219 621.967 180.027 621.967Z" fill="white"/>
<path d="M208.479 624.38C201.287 624.38 196.941 620.319 196.941 611.927C196.941 608.63 198.796 601.438 207.73 601.438C217.066 601.438 218.187 609.829 218.187 613.897H200.387C200.387 616.757 201.505 621.817 208.479 621.817C212.226 621.817 214.995 618.601 214.995 618.601L217.021 620.091C217.021 620.091 214.174 624.38 208.479 624.38ZM200.238 611.328H214.995C214.995 610.129 214.143 603.985 207.58 603.985C200.687 603.985 200.238 611.328 200.238 611.328Z" fill="white"/>
<path d="M224.813 622.267C222.015 620.029 222.469 615.28 225.103 613.126C228.831 610.005 233.883 610.551 238.449 610.578V609.23C238.449 605.633 235.03 603.985 232.455 603.985C228.592 603.985 226.162 606.383 226.162 606.383L224.513 604.435C228.26 601.288 234.327 600.455 238.299 603.086C240.697 604.674 241.603 607.545 241.603 609.829C241.603 616.461 241.603 617.092 241.603 623.724H238.803L238.749 620.169C238.749 620.169 237.301 622.482 235.752 623.316C232.344 625.151 227.801 624.643 224.813 622.267ZM238.299 616.457L238.449 612.976C235.452 613.126 230.519 612.722 227.66 615.224C225.795 616.798 226.438 619.719 227.96 620.918C230.957 623.279 237.85 620.469 238.299 616.457Z" fill="white"/>
<path d="M257.7 624.38C253.374 624.38 249.253 622.267 249.253 616.457V602.337H252.385V616.457C252.385 619.878 254.39 621.817 257.7 621.817C262.308 621.817 264.211 618.237 264.973 614.015V602.337H267.97V623.724H264.973V619.257C264.673 620.918 261.949 624.38 257.7 624.38Z" fill="white"/>
<path d="M276.871 619.197V604.584H272.339V602.138H276.871V596.13H280.153V602.138H286.006V604.584H280.153V619.197C280.153 621.626 283.289 622.296 285.652 620.918L286.006 623.486C281.007 625.563 276.871 623.408 276.871 619.197Z" fill="white"/>
<path d="M288.649 634.704V631.857C294.643 633.056 295.117 628.563 296.891 623.724L288.036 602.138H290.897L298.389 620.169L305.507 602.138H308.429L297.49 630.059C295.81 634.569 293.145 635.304 288.649 634.704Z" fill="white"/>
<path d="M115.273 623.63C108.08 623.63 103.734 619.569 103.734 611.178C103.734 607.881 105.59 600.688 114.524 600.688C123.859 600.688 124.981 609.08 124.981 613.148H107.181C107.181 616.007 108.298 621.068 115.273 621.068C119.019 621.068 121.789 617.852 121.789 617.852L123.814 619.341C123.814 619.341 120.967 623.63 115.273 623.63ZM107.031 610.578H121.789C121.789 609.38 120.937 603.236 114.374 603.236C107.481 603.236 107.031 610.578 107.031 610.578Z" fill="white"/>
<path d="M96.2418 600.688H93.5445V628.86C93.5445 631.737 90.3976 632.606 88 631.857V634.105C94.2937 635.603 96.2418 631.258 96.2418 628.86V600.688Z" fill="white"/>
<circle cx="95.0427" cy="591.398" r="2.0979" fill="white"/>
<circle cx="148.689" cy="621.368" r="2.0979" fill="white"/>
<path fill-rule="evenodd" clip-rule="evenodd" d="M128.31 596.492H142.396V599.19H128.31V596.492ZM128.31 600.389H142.395V603.086H135.952V618.52C135.952 621.068 139.848 621.367 142.545 619.719V622.566C136.072 625.084 133.105 621.367 133.105 618.52V603.086H128.31V600.389Z" fill="white"/>
</svg>
