<svg xmlns="http://www.w3.org/2000/svg" fill="none" viewBox="0 0 119 39"><g clip-path="url(#a)"><path d="M13.581 38.275c4.574 0 8.283-3.717 8.283-8.301s-3.709-8.302-8.283-8.302-8.283 3.717-8.283 8.302 3.709 8.301 8.283 8.301z" fill="#EDABDF"/><path d="M30.142 38.275c4.574 0 8.283-3.717 8.283-8.301s-3.709-8.302-8.283-8.302-8.283 3.717-8.283 8.302 3.709 8.301 8.283 8.301zM13.581 21.676c4.574 0 8.283-3.717 8.283-8.301s-3.709-8.302-8.283-8.302-8.283 3.717-8.283 8.302 3.709 8.301 8.283 8.301z" fill="#EDABDF"/><path d="M30.142 21.676c4.574 0 8.283-3.717 8.283-8.301s-3.709-8.302-8.283-8.302-8.283 3.717-8.283 8.302 3.709 8.301 8.283 8.301z" fill="#EDABDF"/><path d="M43.744 17.326v2.023h-1.717V-.017h1.717v9.459h.052a4.953 4.953 0 0 1 1.992-1.778 5.704 5.704 0 0 1 2.529-.602 6.427 6.427 0 0 1 2.542.486 5.783 5.783 0 0 1 3.19 3.33 7.115 7.115 0 0 1 0 4.963 5.958 5.958 0 0 1-1.25 1.997 5.781 5.781 0 0 1-1.94 1.33 6.36 6.36 0 0 1-2.542.486 5.798 5.798 0 0 1-2.53-.586 4.932 4.932 0 0 1-1.991-1.721l-.052-.021zm8.91-3.968c.003-.64-.1-1.275-.305-1.88a4.568 4.568 0 0 0-.885-1.537 4.109 4.109 0 0 0-1.417-1.033 4.812 4.812 0 0 0-3.752 0 4.314 4.314 0 0 0-1.456 1.025 4.792 4.792 0 0 0-.958 1.532 5.464 5.464 0 0 0 0 3.813c.217.565.542 1.083.958 1.523a4.41 4.41 0 0 0 1.456 1.011c.58.252 1.205.378 1.837.37a4.65 4.65 0 0 0 1.915-.37 3.98 3.98 0 0 0 1.417-1.024c.392-.448.693-.968.885-1.532.206-.611.31-1.253.305-1.898zm16.449-.357v.383c0 .144-.01.287-.026.43h-9.905c.01.582.13 1.156.356 1.692.212.516.524.986.919 1.381.396.397.863.714 1.378.934a4.203 4.203 0 0 0 1.718.344 4.256 4.256 0 0 0 2.335-.624 4.726 4.726 0 0 0 1.495-1.446l1.288 1.024a6.546 6.546 0 0 1-2.362 1.946 6.61 6.61 0 0 1-2.77.585 6.273 6.273 0 0 1-2.464-.473 5.68 5.68 0 0 1-1.954-1.317 6.272 6.272 0 0 1-1.288-1.997 6.559 6.559 0 0 1-.472-2.51 6.716 6.716 0 0 1 .46-2.504 6.1 6.1 0 0 1 1.288-1.996 5.897 5.897 0 0 1 1.915-1.322 5.953 5.953 0 0 1 2.374-.473 6.119 6.119 0 0 1 2.477.473 5.166 5.166 0 0 1 1.787 1.291 5.524 5.524 0 0 1 1.086 1.88c.248.741.371 1.518.365 2.299zm-1.76-.564a4.348 4.348 0 0 0-1.087-2.801 3.693 3.693 0 0 0-2.872-1.115 3.985 3.985 0 0 0-1.61.323 4.276 4.276 0 0 0-2.181 2.113 4.023 4.023 0 0 0-.387 1.472l8.136.008zm12.868-.839a3.02 3.02 0 0 0-.816-2.315 3.366 3.366 0 0 0-2.374-.762 5.061 5.061 0 0 0-1.993.387 4.724 4.724 0 0 0-1.558 1.02L72.5 8.78a5.79 5.79 0 0 1 1.953-1.23 7.34 7.34 0 0 1 2.744-.487 5.904 5.904 0 0 1 1.816.271 4.29 4.29 0 0 1 1.477.805c.434.367.776.831.996 1.356.252.607.375 1.261.36 1.919v5.25c0 .462.018.94.052 1.433.024.42.074.839.15 1.252H80.49c-.047-.288-.09-.606-.124-.946a9.996 9.996 0 0 1-.052-.999h-.051a5.109 5.109 0 0 1-1.851 1.722 5.472 5.472 0 0 1-2.49.52 5.682 5.682 0 0 1-1.417-.189 4.012 4.012 0 0 1-1.327-.628 3.513 3.513 0 0 1-.996-1.132 3.346 3.346 0 0 1-.4-1.696 3.228 3.228 0 0 1 .705-2.194 4.201 4.201 0 0 1 1.876-1.205 10.97 10.97 0 0 1 2.696-.517 41.236 41.236 0 0 1 3.152-.116v-.37zm-.507 1.76c-.712 0-1.434.03-2.147.09-.666.05-1.326.17-1.966.362a3.681 3.681 0 0 0-1.443.779 1.72 1.72 0 0 0-.562 1.356c-.012.373.07.743.24 1.075.157.285.38.526.653.702.276.182.583.314.906.387.331.074.67.111 1.009.112a3.937 3.937 0 0 0 1.636-.319c.457-.196.865-.49 1.198-.86.325-.372.578-.803.743-1.27a4.49 4.49 0 0 0 .253-1.506v-.908h-.52zm15.29 5.99c-.034-.323-.056-.68-.073-1.076s-.026-.714-.026-.972h-.051a3.937 3.937 0 0 1-1.662 1.72 4.84 4.84 0 0 1-2.426.65c-1.515 0-2.65-.43-3.409-1.355a5.396 5.396 0 0 1-1.134-3.58V7.37h1.718V14a8.736 8.736 0 0 0 .155 1.721c.084.47.262.918.523 1.317.25.371.593.669.997.86a3.507 3.507 0 0 0 1.567.306c.462 0 .92-.094 1.344-.28.445-.197.84-.491 1.159-.86a4.25 4.25 0 0 0 .816-1.459 6.339 6.339 0 0 0 .309-2.087V7.37h1.717v9.343a38.92 38.92 0 0 0 .103 2.634h-1.627zM106.54 8.831h-3.371v6.984c-.01.371.032.742.125 1.102.065.254.193.488.373.68.159.158.355.272.571.331.234.062.475.092.717.09.254-.002.507-.036.752-.103.26-.068.513-.162.755-.28l.078 1.511a5.534 5.534 0 0 1-.958.267 6.122 6.122 0 0 1-1.086.09 4.337 4.337 0 0 1-1.022-.129 2.574 2.574 0 0 1-1.013-.486 2.681 2.681 0 0 1-.756-.973 3.798 3.798 0 0 1-.292-1.614v-7.47h-2.478V7.37h2.478V3.995h1.739v3.378h3.37l.018 1.459zm6.81 8.637h.051l3.706-10.109h1.889l-5.951 15.062a6.315 6.315 0 0 1-1.365 2.212 3.235 3.235 0 0 1-2.388.83 8.17 8.17 0 0 1-1.558-.15l.18-1.588c.415.14.85.21 1.288.206a1.826 1.826 0 0 0 1.404-.55 4.8 4.8 0 0 0 .893-1.575l.971-2.51-5.119-11.924h1.941l4.058 10.096zM28.115 5.508h-7.252v1.343h7.252V5.508zM4.47 21.065a8.816 8.816 0 0 1-.138 1.618 3.081 3.081 0 0 1-.51 1.244 2.385 2.385 0 0 1-1.005.809c-.516.21-1.07.309-1.628.288A3.326 3.326 0 0 1 0 24.8l.223-1.32c.299.123.618.192.94.202.333.014.664-.06.958-.216a1.39 1.39 0 0 0 .545-.546 2.19 2.19 0 0 0 .25-.783c.043-.314.065-.63.064-.947V7.57h1.49v13.496zM2.606 2.99A1.13 1.13 0 0 1 3.3 1.96a1.123 1.123 0 0 1 1.506.703 1.13 1.13 0 0 1-.642 1.379A1.123 1.123 0 0 1 2.606 2.99zm16.222 13.892a5.022 5.022 0 0 1-2.147 1.893 6.783 6.783 0 0 1-2.817.573 6.15 6.15 0 0 1-2.387-.43A5.44 5.44 0 0 1 9.64 17.66a5.596 5.596 0 0 1-1.18-1.92 7.063 7.063 0 0 1-.43-2.452 6.65 6.65 0 0 1 .43-2.389 5.669 5.669 0 0 1 1.193-1.902 5.5 5.5 0 0 1 1.812-1.29 5.623 5.623 0 0 1 2.31-.466 5.473 5.473 0 0 1 2.323.465c.642.285 1.218.7 1.692 1.218a5.203 5.203 0 0 1 1.03 1.721c.23.63.347 1.296.348 1.967v1.046h-9.64c.014.415.077.827.19 1.226a4.308 4.308 0 0 0 2.013 2.625c.658.358 1.4.53 2.147.5a4.78 4.78 0 0 0 2.212-.551 3.954 3.954 0 0 0 1.64-1.493l1.099.916zm-1.146-4.553a3.416 3.416 0 0 0-.31-1.446 3.995 3.995 0 0 0-2.125-1.992 4.075 4.075 0 0 0-1.55-.297 3.776 3.776 0 0 0-2.027.499c-.5.293-.937.682-1.288 1.145a4.55 4.55 0 0 0-.67 1.256c-.102.268-.168.55-.197.835h8.167zm10.433-3.438h-3.276v7.497a1.604 1.604 0 0 0 .43 1.192 1.568 1.568 0 0 0 1.167.43c.29-.001.578-.039.859-.112.284-.075.563-.171.833-.288l.124 1.342a7.788 7.788 0 0 1-.966.276 4.534 4.534 0 0 1-.97.125 3.51 3.51 0 0 1-1.366-.237 2.465 2.465 0 0 1-.918-.633c-.236-.27-.41-.59-.511-.933a4.01 4.01 0 0 1-.163-1.158V8.89H20.88V7.57h7.252l-.017 1.32zm2.027 9.381a1.228 1.228 0 0 1 .982-1.207 1.222 1.222 0 0 1 1.372.732 1.229 1.229 0 0 1-.451 1.49 1.222 1.222 0 0 1-1.547-.154 1.167 1.167 0 0 1-.356-.861z" fill="#06326B"/></g><defs><clipPath id="a"><path d="M0 0h119v38.275H0z" fill="#fff"/></clipPath></defs></svg>