<svg width="661" height="247" viewBox="0 0 661 247" fill="none" xmlns="http://www.w3.org/2000/svg">
<g opacity="0.6">
<g filter="url(#filter0_f)">
<circle opacity="0.3" cx="62.3836" cy="186.8" r="41.982" fill="#E389D1"/>
<circle opacity="0.3" cx="146.348" cy="186.8" r="41.982" fill="#E389D1"/>
<circle opacity="0.3" cx="146.348" cy="102.836" r="41.982" fill="#E389D1"/>
<circle opacity="0.3" cx="62.3836" cy="102.837" r="41.982" fill="#E389D1"/>
</g>
<g opacity="0.12" filter="url(#filter1_f)">
<path d="M277.282 111.481C271.821 111.481 266.708 110.653 261.944 107.515C257.296 104.494 253.547 99.6417 253.547 99.6417V109.607H244.339V8H253.547V56.671C253.547 56.671 256.676 53.0252 261.44 49.6553C266.204 46.4017 272.731 44.8321 278.541 44.8321C296.518 44.8321 310.549 58.8633 310.549 75.087C310.549 94.9473 298.326 111.481 277.282 111.481ZM277.282 104.465C292.687 104.465 300.639 91.5937 300.639 77.2794C300.639 63.2625 290.818 52.7846 278.541 52.7846C264.509 52.7846 252.67 62.8096 252.67 76.4024C252.67 92.1876 260.286 104.465 277.282 104.465Z" fill="#043071"/>
<path d="M360.536 111.524C339.489 111.524 326.773 99.6417 326.773 75.087C326.773 65.4405 332.202 44.3936 358.343 44.3936C385.661 44.3936 388.942 68.9483 388.942 80.8526H336.858C336.858 89.219 340.128 104.026 360.536 104.026C371.498 104.026 379.603 94.6169 379.603 94.6169L385.529 98.9745C385.529 98.9745 377.198 111.524 360.536 111.524ZM336.42 73.3331H379.603C379.603 69.8253 377.109 51.8477 357.905 51.8477C337.735 51.8477 336.42 73.3331 336.42 73.3331Z" fill="#043071"/>
<path d="M408.33 105.342C400.144 98.7932 401.472 84.8988 409.177 78.5948C420.086 69.4618 434.87 71.061 448.231 71.1407V67.1944C448.231 56.671 438.225 51.8477 430.692 51.8477C419.388 51.8477 412.276 58.8633 412.276 58.8633L407.453 53.1631C418.415 43.9551 436.169 41.5192 447.793 49.2169C454.808 53.8627 457.459 62.266 457.459 68.9483C457.459 88.3539 457.459 90.2013 457.459 109.607H449.267L449.108 99.2032C449.108 99.2032 444.87 105.971 440.339 108.411C430.366 113.781 417.073 112.296 408.33 105.342ZM447.793 88.3421L448.231 78.1563C439.462 78.5948 425.026 77.4136 416.661 84.7335C411.202 89.339 413.086 97.8878 417.538 101.396C426.307 108.305 446.477 100.08 447.793 88.3421Z" fill="#043071"/>
<path d="M504.56 111.524C491.903 111.524 479.845 105.342 479.845 88.3421V47.0245H489.01V88.3421C489.01 98.3512 494.875 104.026 504.56 104.026C518.043 104.026 523.614 93.5505 525.842 81.1957V47.0245H534.611V109.607H525.842V96.5342C524.965 101.396 516.994 111.524 504.56 111.524Z" fill="#043071"/>
<path d="M560.658 96.3599V53.6016H547.395V46.4444H560.658V28.8617H570.261V46.4444H587.386V53.6016H570.261V96.3599C570.261 103.468 579.437 105.429 586.352 101.396L587.386 108.91C572.759 114.988 560.658 108.682 560.658 96.3599Z" fill="#043071"/>
<path d="M595.121 141.736V133.404C612.66 136.912 614.046 123.766 619.237 109.607L593.326 46.4444H601.698L623.622 99.2032L644.448 46.4444H653L620.991 128.143C616.075 141.339 608.275 143.489 595.121 141.736Z" fill="#043071"/>
<path d="M87.803 109.332C66.7561 109.332 54.0403 97.4496 54.0403 72.8948C54.0403 63.2483 59.4691 42.2014 85.6106 42.2014C112.928 42.2014 116.209 66.7561 116.209 78.6604H64.1253C64.1253 87.0269 67.3954 101.834 87.803 101.834C98.765 101.834 106.87 92.4248 106.87 92.4248L112.796 96.7823C112.796 96.7823 104.465 109.332 87.803 109.332ZM63.6868 71.1409H106.87C106.87 67.6331 104.377 49.6555 85.1722 49.6555C65.0022 49.6555 63.6868 71.1409 63.6868 71.1409Z" fill="#043071"/>
<path d="M32.1163 42.2014H24.2237V124.635C24.2237 133.054 15.0156 135.597 8 133.405V139.982C26.416 144.367 32.1163 131.651 32.1163 124.635V42.2014Z" fill="#043071"/>
<circle cx="28.6084" cy="15.0156" r="6.13868" fill="#043071"/>
<circle cx="185.583" cy="102.711" r="6.13868" fill="#043071"/>
<path fill-rule="evenodd" clip-rule="evenodd" d="M125.951 29.9241H167.167V37.8167H125.951V29.9241ZM125.95 41.3244H167.167V49.217H148.313V94.3801C148.313 101.834 159.713 102.711 167.606 97.8879V106.219C148.664 113.585 139.982 102.711 139.982 94.3801V49.217H125.95V41.3244Z" fill="#043071"/>
</g>
</g>
<defs>
<filter id="filter0_f" x="2.40161" y="42.8542" width="203.928" height="203.928" filterUnits="userSpaceOnUse" color-interpolation-filters="sRGB">
<feFlood flood-opacity="0" result="BackgroundImageFix"/>
<feBlend mode="normal" in="SourceGraphic" in2="BackgroundImageFix" result="shape"/>
<feGaussianBlur stdDeviation="9" result="effect1_foregroundBlur"/>
</filter>
<filter id="filter1_f" x="0" y="0" width="661" height="150.263" filterUnits="userSpaceOnUse" color-interpolation-filters="sRGB">
<feFlood flood-opacity="0" result="BackgroundImageFix"/>
<feBlend mode="normal" in="SourceGraphic" in2="BackgroundImageFix" result="shape"/>
<feGaussianBlur stdDeviation="4" result="effect1_foregroundBlur"/>
</filter>
</defs>
</svg>
