<svg width="131" height="43" viewBox="0 0 131 43" fill="none" xmlns="http://www.w3.org/2000/svg">
<circle cx="15.5845" cy="33.3069" r="9.61795" fill="#E389D1"/>
<circle cx="34.8206" cy="33.3069" r="9.61795" fill="#E389D1"/>
<circle cx="34.8206" cy="14.0706" r="9.61795" fill="#E389D1"/>
<circle cx="15.5845" cy="14.0706" r="9.61795" fill="#E389D1"/>
<path d="M54.6915 21.017C53.5823 21.017 52.5438 20.8488 51.5762 20.2116C50.6322 19.598 49.8709 18.6125 49.8709 18.6125V20.6364H48.0007V0H49.8709V9.88511C49.8709 9.88511 50.5063 9.14465 51.4739 8.46023C52.4415 7.79942 53.767 7.48063 54.947 7.48063C58.5983 7.48063 61.448 10.3304 61.448 13.6254C61.448 17.6591 58.9655 21.017 54.6915 21.017ZM54.6915 19.5921C57.8201 19.5921 59.4352 16.978 59.4352 14.0707C59.4352 11.2239 57.4406 9.09578 54.947 9.09578C52.0973 9.09578 49.6928 11.1319 49.6928 13.8926C49.6928 17.0986 51.2395 19.5921 54.6915 19.5921Z" fill="white"/>
<path d="M71.6003 21.0258C67.3257 21.0258 64.7431 18.6125 64.7431 13.6254C64.7431 11.6662 65.8457 7.39157 71.155 7.39157C76.7032 7.39157 77.3696 12.3787 77.3696 14.7964H66.7913C66.7913 16.4957 67.4555 19.5031 71.6003 19.5031C73.8267 19.5031 75.4728 17.592 75.4728 17.592L76.6765 18.477C76.6765 18.477 74.9844 21.0258 71.6003 21.0258ZM66.7023 13.2692H75.4728C75.4728 12.5568 74.9664 8.90551 71.066 8.90551C66.9695 8.90551 66.7023 13.2692 66.7023 13.2692Z" fill="white"/>
<path d="M81.3073 19.7702C79.6448 18.4402 79.9146 15.6182 81.4795 14.3379C83.6951 12.4829 86.6977 12.8077 89.4113 12.8239V12.0224C89.4113 9.88511 87.3792 8.90551 85.8491 8.90551C83.5532 8.90551 82.1088 10.3304 82.1088 10.3304L81.1292 9.17267C83.3556 7.30252 86.9614 6.80777 89.3223 8.37118C90.7472 9.31475 91.2855 11.0215 91.2855 12.3787C91.2855 16.3199 91.2855 16.6952 91.2855 20.6364H89.6216L89.5894 18.5235C89.5894 18.5235 88.7288 19.898 87.8083 20.3936C85.7829 21.4842 83.083 21.1827 81.3073 19.7702ZM89.3223 16.3175L89.4113 14.2488C87.6302 14.3379 84.6984 14.098 82.9994 15.5846C81.8908 16.52 82.2732 18.2563 83.1775 18.9687C84.9586 20.372 89.0551 18.7016 89.3223 16.3175Z" fill="white"/>
<path d="M100.852 21.0258C98.2812 21.0258 95.8321 19.7702 95.8321 16.3175V7.9259H97.6935V16.3175C97.6935 18.3504 98.8846 19.5031 100.852 19.5031C103.59 19.5031 104.722 17.3754 105.174 14.8661V7.9259H106.955V20.6364H105.174V17.9814C104.996 18.9687 103.377 21.0258 100.852 21.0258Z" fill="white"/>
<path d="M112.245 17.946V9.26173H109.551V7.80808H112.245V4.23703H114.196V7.80808H117.674V9.26173H114.196V17.946C114.196 19.3896 116.059 19.7879 117.464 18.9687L117.674 20.4948C114.703 21.7294 112.245 20.4485 112.245 17.946Z" fill="white"/>
<path d="M119.245 27.1618V25.4698C122.807 26.1822 123.088 23.5121 124.143 20.6364L118.88 7.80808H120.581L125.033 18.5235L129.263 7.80808H131L124.499 24.4011C123.501 27.0812 121.916 27.518 119.245 27.1618Z" fill="white"/>
<path d="M16.2081 20.5806C11.9334 20.5806 9.35083 18.1672 9.35083 13.1801C9.35083 11.2209 10.4534 6.94629 15.7628 6.94629C21.311 6.94629 21.9773 11.9334 21.9773 14.3511H11.3991C11.3991 16.0504 12.0633 19.0578 16.2081 19.0578C18.4344 19.0578 20.0806 17.1467 20.0806 17.1467L21.2842 18.0317C21.2842 18.0317 19.5922 20.5806 16.2081 20.5806ZM11.31 12.8239H20.0806C20.0806 12.1115 19.5742 8.46023 15.6737 8.46023C11.5772 8.46023 11.31 12.8239 11.31 12.8239Z" fill="white"/>
<path d="M4.89803 6.94629H3.29504V23.6886C3.29504 25.3985 1.42488 25.915 0 25.4697V26.8056C3.74031 27.6961 4.89803 25.1135 4.89803 23.6886V6.94629Z" fill="white"/>
<circle cx="4.18549" cy="1.42499" r="1.24677" fill="white"/>
<circle cx="36.0673" cy="19.236" r="1.24677" fill="white"/>
<path fill-rule="evenodd" clip-rule="evenodd" d="M23.9559 4.45264H32.3271V6.05563H23.9559V4.45264ZM23.9558 6.76883H32.327V8.37182H28.4976V17.544C28.4976 19.0579 30.8131 19.236 32.4161 18.2564V19.9485C28.5689 21.4446 26.8056 19.236 26.8056 17.544V8.37182H23.9558V6.76883Z" fill="white"/>
</svg>
