<svg width="1920" height="1584" viewBox="0 0 1920 1584" fill="none" xmlns="http://www.w3.org/2000/svg">
<path d="M1501 1158.32L-18.5229 0.819214L-18.0713 644.176L1501 1158.32Z" fill="#043071"/>
<path d="M605 481.709L1919.51 668.907L1920 1582.76L605 481.709Z" fill="#EEABE0"/>
<circle cx="801.836" cy="850.409" r="25.8187" fill="#E389D1"/>
<circle cx="853.473" cy="850.409" r="25.8187" fill="#E389D1"/>
<circle cx="853.473" cy="798.772" r="25.8187" fill="#E389D1"/>
<circle cx="801.836" cy="798.772" r="25.8187" fill="#E389D1"/>
<path d="M906.815 817.419C903.837 817.419 901.05 816.967 898.452 815.257C895.918 813.609 893.875 810.964 893.875 810.964V816.397H888.854V761H893.875V787.536C893.875 787.536 895.58 785.548 898.178 783.711C900.775 781.937 904.333 781.081 907.501 781.081C917.303 781.081 924.953 788.731 924.953 797.576C924.953 808.404 918.288 817.419 906.815 817.419ZM906.815 813.594C915.214 813.594 919.549 806.576 919.549 798.772C919.549 791.13 914.195 785.417 907.501 785.417C899.851 785.417 893.396 790.883 893.396 798.294C893.396 806.9 897.549 813.594 906.815 813.594Z" fill="white"/>
<path d="M952.206 817.442C940.731 817.442 933.798 810.964 933.798 797.576C933.798 792.317 936.758 780.842 951.01 780.842C965.904 780.842 967.693 794.23 967.693 800.72H939.296C939.296 805.281 941.079 813.355 952.206 813.355C958.182 813.355 962.601 808.224 962.601 808.224L965.832 810.6C965.832 810.6 961.29 817.442 952.206 817.442ZM939.057 796.62H962.601C962.601 794.708 961.242 784.906 950.771 784.906C939.774 784.906 939.057 796.62 939.057 796.62Z" fill="white"/>
<path d="M978.263 814.072C973.8 810.501 974.525 802.926 978.725 799.489C984.673 794.51 992.733 795.381 1000.02 795.425V793.273C1000.02 787.536 994.563 784.906 990.455 784.906C984.292 784.906 980.415 788.731 980.415 788.731L977.785 785.623C983.762 780.603 993.441 779.275 999.779 783.472C1003.6 786.005 1005.05 790.586 1005.05 794.23C1005.05 804.81 1005.05 805.817 1005.05 816.397H1000.58L1000.5 810.725C1000.5 810.725 998.186 814.415 995.715 815.745C990.278 818.673 983.03 817.863 978.263 814.072ZM999.779 804.803L1000.02 799.25C995.237 799.489 987.366 798.845 982.805 802.836C979.83 805.347 980.856 810.008 983.284 811.92C988.065 815.687 999.062 811.203 999.779 804.803Z" fill="white"/>
<path d="M1030.73 817.442C1023.83 817.442 1017.25 814.072 1017.25 804.803V782.276H1022.25V804.803C1022.25 810.26 1025.45 813.355 1030.73 813.355C1038.08 813.355 1041.12 807.643 1042.33 800.907V782.276H1047.11V816.397H1042.33V809.27C1041.85 811.92 1037.51 817.442 1030.73 817.442Z" fill="white"/>
<path d="M1061.31 809.175V785.862H1054.08V781.96H1061.31V772.374H1066.55V781.96H1075.89V785.862H1066.55V809.175C1066.55 813.05 1071.55 814.119 1075.32 811.92L1075.89 816.017C1067.91 819.331 1061.31 815.893 1061.31 809.175Z" fill="white"/>
<path d="M1080.1 833.914V829.372C1089.67 831.284 1090.42 824.116 1093.25 816.397L1079.13 781.96H1083.69L1095.64 810.725L1107 781.96H1111.66L1094.21 826.503C1091.53 833.697 1087.28 834.87 1080.1 833.914Z" fill="white"/>
<path d="M803.509 816.247C792.034 816.247 785.102 809.769 785.102 796.381C785.102 791.122 788.061 779.647 802.314 779.647C817.208 779.647 818.996 793.034 818.996 799.525H790.6C790.6 804.086 792.383 812.159 803.509 812.159C809.486 812.159 813.905 807.029 813.905 807.029L817.136 809.405C817.136 809.405 812.594 816.247 803.509 816.247ZM790.361 795.425H813.905C813.905 793.512 812.545 783.711 802.075 783.711C791.078 783.711 790.361 795.425 790.361 795.425Z" fill="white"/>
<path d="M773.148 779.647H768.845V824.59C768.845 829.18 763.825 830.567 760 829.372V832.958C770.041 835.348 773.148 828.415 773.148 824.59V779.647Z" fill="white"/>
<circle cx="771.236" cy="764.825" r="3.34686" fill="white"/>
<circle cx="856.82" cy="812.637" r="3.34686" fill="white"/>
<path fill-rule="evenodd" clip-rule="evenodd" d="M824.308 772.953H846.78V777.256H824.308V772.953ZM824.308 779.169H846.779V783.472H836.5V808.095C836.5 812.159 842.715 812.637 847.018 810.007V814.55C836.691 818.566 831.958 812.637 831.958 808.095V783.472H824.308V779.169Z" fill="white"/>
</svg>
