<svg width="40" height="36" viewBox="0 0 40 36" fill="none" xmlns="http://www.w3.org/2000/svg">
<path d="M29.481 14.2695L30.1227 14.6577L30.1227 14.6577L29.481 14.2695ZM30.8417 12.0201L30.8417 11.2701L30.4189 11.2701L30.2 11.6319L30.8417 12.0201ZM27.7023 14.1365L27.01 14.425V14.425L27.7023 14.1365ZM26.8205 12.0201L27.5128 11.7317L27.3205 11.2701L26.8205 11.2701L26.8205 12.0201ZM24.7698 1.00043L24.7698 0.250425L24.7698 1.00043ZM32.938 1.00043L32.938 1.75043L32.938 1.00043ZM30.1227 14.6577L31.4834 12.4083L30.2 11.6319L28.8393 13.8813L30.1227 14.6577ZM27.01 14.425C27.561 15.7475 29.3811 15.8836 30.1227 14.6577L28.8393 13.8813C28.7333 14.0564 28.4733 14.037 28.3946 13.848L27.01 14.425ZM26.1282 12.3086L27.01 14.425L28.3946 13.848L27.5128 11.7317L26.1282 12.3086ZM26.8205 11.2701L24.7698 11.2701L24.7698 12.7701L26.8205 12.7701L26.8205 11.2701ZM24.7698 11.2701C23.5271 11.2701 22.5198 10.2628 22.5198 9.02014L21.0198 9.02014C21.0198 11.0912 22.6987 12.7701 24.7698 12.7701L24.7698 11.2701ZM22.5198 9.02014L22.5198 4.00042L21.0198 4.00042L21.0198 9.02014L22.5198 9.02014ZM22.5198 4.00042C22.5198 2.75778 23.5271 1.75043 24.7698 1.75043L24.7698 0.250425C22.6987 0.250425 21.0198 1.92936 21.0198 4.00042L22.5198 4.00042ZM24.7698 1.75043L32.938 1.75043L32.938 0.250426L24.7698 0.250425L24.7698 1.75043ZM32.938 1.75043C34.1806 1.75043 35.188 2.75778 35.188 4.00043L36.688 4.00043C36.688 1.92936 35.0091 0.250426 32.938 0.250426L32.938 1.75043ZM35.188 4.00043L35.188 9.02014L36.688 9.02014L36.688 4.00043L35.188 4.00043ZM35.188 9.02014C35.188 10.2628 34.1806 11.2701 32.938 11.2701L32.938 12.7701C35.0091 12.7701 36.688 11.0912 36.688 9.02014L35.188 9.02014ZM32.938 11.2701L30.8417 11.2701L30.8417 12.7701L32.938 12.7701L32.938 11.2701Z" fill="#043071"/>
<path d="M24.9194 4.14795L32.7907 4.14795" stroke="#043071" stroke-width="1.5" stroke-linecap="round"/>
<path d="M24.9194 7.29688L30.4293 7.29687" stroke="#043071" stroke-width="1.5" stroke-linecap="round"/>
<path d="M25.2615 34.5475L24.7372 34.0112L25.2615 34.5475ZM28.9273 30.9632L28.9273 30.2132L28.6216 30.2132L28.403 30.4269L28.9273 30.9632ZM23.5624 33.8325L22.8124 33.8325L22.8124 33.8325L23.5624 33.8325ZM23.5624 30.7103L24.3124 30.7103L24.3124 30.221L23.8645 30.0238L23.5624 30.7103ZM38.5015 22.012L39.2515 22.012L38.5015 22.012ZM38.5015 27.9632L37.7515 27.9632L38.5015 27.9632ZM25.7858 35.0837L29.4516 31.4994L28.403 30.4269L24.7372 34.0112L25.7858 35.0837ZM22.8124 33.8325C22.8124 35.3821 24.6778 36.1671 25.7858 35.0837L24.7372 34.0112C24.5789 34.166 24.3124 34.0538 24.3124 33.8325L22.8124 33.8325ZM22.8124 30.7103L22.8124 33.8325L24.3124 33.8325L24.3124 30.7103L22.8124 30.7103ZM23.8645 30.0238C23.0713 29.6747 22.5198 28.8825 22.5198 27.9632L21.0198 27.9632C21.0198 29.4985 21.9423 30.8167 23.2602 31.3967L23.8645 30.0238ZM22.5198 27.9632L22.5198 22.012L21.0198 22.012L21.0198 27.9632L22.5198 27.9632ZM22.5198 22.012C22.5198 20.7693 23.5272 19.762 24.7698 19.762L24.7698 18.262C22.6987 18.262 21.0198 19.9409 21.0198 22.012L22.5198 22.012ZM24.7698 19.762L35.5015 19.762L35.5015 18.262L24.7698 18.262L24.7698 19.762ZM35.5015 19.762C36.7441 19.762 37.7515 20.7693 37.7515 22.012L39.2515 22.012C39.2515 19.9409 37.5725 18.262 35.5015 18.262L35.5015 19.762ZM37.7515 22.012L37.7515 27.9632L39.2515 27.9632L39.2515 22.012L37.7515 22.012ZM37.7515 27.9632C37.7515 29.2058 36.7441 30.2132 35.5015 30.2132L35.5015 31.7132C37.5725 31.7132 39.2515 30.0342 39.2515 27.9632L37.7515 27.9632ZM35.5015 30.2132L28.9273 30.2132L28.9273 31.7132L35.5015 31.7132L35.5015 30.2132Z" fill="#043071"/>
<circle cx="32.9255" cy="22.7297" r="1.35907" stroke="#043071"/>
<path d="M22.2358 28.7716L27.1073 24.3062C27.5019 23.9444 28.1115 23.9576 28.4901 24.3362L31.3412 27.1873C31.7107 27.5568 32.3023 27.5795 32.6991 27.2394L34.4901 25.7043C34.9094 25.3449 35.5407 25.3934 35.9002 25.8127L38.038 28.3069" stroke="#043071" stroke-width="1.5" stroke-linecap="round"/>
<path d="M14.4757 23.6977L13.969 24.2505L13.969 24.2505L14.4757 23.6977ZM10.6414 20.1831L10.6414 19.4331L10.9331 19.4331L11.1482 19.6303L10.6414 20.1831ZM16.1498 22.904L16.8986 22.8616L16.8986 22.8616L16.1498 22.904ZM15.9797 19.8978L15.2309 19.9402L15.2023 19.4353L15.6596 19.2195L15.9797 19.8978ZM17.701 17.1831L16.951 17.1831L17.701 17.1831ZM17.701 10.0043L18.451 10.0043L17.701 10.0043ZM0.756835 10.0043L1.50683 10.0043L0.756835 10.0043ZM0.756835 17.1831L0.00683534 17.1831L0.756835 17.1831ZM13.969 24.2505L10.1346 20.736L11.1482 19.6303L14.9825 23.1448L13.969 24.2505ZM16.8986 22.8616C16.9874 24.4292 15.1264 25.3115 13.969 24.2505L14.9825 23.1448C15.1479 23.2963 15.4137 23.1703 15.401 22.9463L16.8986 22.8616ZM16.7285 19.8554L16.8986 22.8616L15.401 22.9463L15.2309 19.9402L16.7285 19.8554ZM15.6596 19.2195C16.4244 18.8587 16.951 18.0816 16.951 17.1831L18.451 17.1831C18.451 18.6837 17.5697 19.9768 16.2997 20.5761L15.6596 19.2195ZM16.951 17.1831L16.951 10.0043L18.451 10.0043L18.451 17.1831L16.951 17.1831ZM16.951 10.0043C16.951 8.76168 15.9437 7.75432 14.701 7.75432L14.701 6.25432C16.7721 6.25432 18.451 7.93326 18.451 10.0043L16.951 10.0043ZM14.701 7.75432L3.75684 7.75432L3.75684 6.25432L14.701 6.25432L14.701 7.75432ZM3.75684 7.75432C2.51419 7.75432 1.50683 8.76168 1.50683 10.0043L0.00683472 10.0043C0.00683454 7.93325 1.68577 6.25432 3.75684 6.25432L3.75684 7.75432ZM1.50683 10.0043L1.50684 17.1831L0.00683534 17.1831L0.00683472 10.0043L1.50683 10.0043ZM1.50684 17.1831C1.50684 18.4258 2.5142 19.4331 3.75684 19.4331L3.75684 20.9331C1.68577 20.9331 0.00683553 19.2542 0.00683534 17.1831L1.50684 17.1831ZM3.75684 19.4331L10.6414 19.4331L10.6414 20.9331L3.75684 20.9331L3.75684 19.4331Z" fill="#043071"/>
<path d="M7.25147 11.6163C7.25147 10.8405 8.09653 10.3601 8.76311 10.7571L11.6965 12.5038C12.3477 12.8916 12.3477 13.8345 11.6965 14.2223L8.7631 15.969C8.09652 16.3659 7.25147 15.8856 7.25147 15.1098L7.25147 11.6163Z" fill="#043071"/>
</svg>
