<svg width="29" height="47" viewBox="0 0 29 47" fill="none" xmlns="http://www.w3.org/2000/svg">
<path d="M14.2686 34.696L16.9297 32.067L20.9621 32.8729C23.0621 33.2925 24.8114 34.7377 25.6197 36.7208C25.9313 37.4854 26.0916 38.3032 26.0916 39.1288V41.3608C26.0916 43.57 24.3007 45.3608 22.0916 45.3608H6C3.79086 45.3608 2 43.57 2 41.3608V40.1109C2 38.9271 2.28147 37.7602 2.82119 36.7066C3.84592 34.7063 5.71721 33.2739 7.91577 32.807L11.4008 32.067L14.2686 34.696Z" stroke="#7B8FAC" stroke-width="1.5" stroke-linecap="round"/>
<path d="M11.498 31.8318V29.4382M16.8973 31.629V29" stroke="#7B8FAC" stroke-width="1.5" stroke-linecap="round"/>
<mask id="path-3-inside-1" fill="white">
<path d="M13.9192 29.9074C17.8131 29.9074 20.4898 26.3124 20.4898 21.8776C20.4898 20.532 19.4162 19.2636 18.9025 18.1495C17.719 18.5952 16.5645 19.6337 15.2112 19.8702C12.8114 20.2896 10.4989 19.6585 11.3722 19.2238C12.738 18.5439 10.191 18.9023 8.75134 18.1495C8.75134 18.1495 7.34863 20.7162 7.34863 21.8776C7.34863 26.3124 10.0254 29.9074 13.9192 29.9074Z"/>
</mask>
<path d="M8.75134 18.1495L9.44641 16.8203L8.14135 16.1379L7.43508 17.4302L8.75134 18.1495ZM18.9025 18.1495L20.2647 17.5214L19.6802 16.2539L18.3739 16.7458L18.9025 18.1495ZM11.3722 19.2238L12.0407 20.5666L11.3722 19.2238ZM15.2112 19.8702L14.953 18.3926V18.3926L15.2112 19.8702ZM18.9898 21.8776C18.9898 25.8222 16.6827 28.4074 13.9192 28.4074V31.4074C18.9434 31.4074 21.9898 26.8025 21.9898 21.8776H18.9898ZM13.9192 28.4074C11.1557 28.4074 8.84863 25.8222 8.84863 21.8776H5.84863C5.84863 26.8025 8.89499 31.4074 13.9192 31.4074V28.4074ZM8.84863 21.8776C8.84863 21.8788 8.84867 21.8637 8.85292 21.8295C8.85708 21.796 8.86441 21.7512 8.87644 21.6944C8.90084 21.579 8.93973 21.4366 8.99413 21.2695C9.10344 20.9337 9.2563 20.5561 9.42008 20.1887C9.58221 19.8249 9.74576 19.4916 9.8694 19.2483C9.93092 19.1272 9.98182 19.0299 10.0168 18.9639C10.0342 18.9309 10.0476 18.9059 10.0563 18.8897C10.0607 18.8816 10.0639 18.8758 10.0658 18.8723C10.0667 18.8705 10.0674 18.8693 10.0677 18.8688C10.0678 18.8685 10.0679 18.8684 10.0679 18.8684C10.0679 18.8684 10.0678 18.8684 10.0678 18.8685C10.0678 18.8686 10.0677 18.8687 10.0677 18.8687C10.0677 18.8688 10.0676 18.8689 8.75134 18.1495C7.43508 17.4302 7.43501 17.4303 7.43493 17.4305C7.4349 17.4305 7.43482 17.4307 7.43475 17.4308C7.43462 17.431 7.43447 17.4313 7.43429 17.4316C7.43394 17.4323 7.4335 17.4331 7.43298 17.434C7.43195 17.4359 7.43057 17.4385 7.42887 17.4416C7.42547 17.4479 7.42076 17.4566 7.41484 17.4676C7.40301 17.4896 7.38629 17.5208 7.36538 17.5603C7.32361 17.6392 7.26492 17.7514 7.19493 17.8892C7.05557 18.1634 6.86845 18.5444 6.6799 18.9674C6.493 19.3868 6.29518 19.8687 6.14148 20.3408C5.99832 20.7806 5.84863 21.3428 5.84863 21.8776H8.84863ZM17.5404 18.7776C17.7018 19.1279 17.898 19.4709 18.0713 19.7682C18.2558 20.0847 18.4162 20.3527 18.5648 20.6318C18.8685 21.2021 18.9898 21.5855 18.9898 21.8776H21.9898C21.9898 20.8241 21.5743 19.9005 21.2128 19.2217C21.0288 18.8762 20.8245 18.5342 20.6632 18.2574C20.4907 17.9616 20.36 17.7282 20.2647 17.5214L17.5404 18.7776ZM8.05627 19.4788C9.06692 20.0073 10.3978 20.1291 10.908 20.1998C11.0696 20.2222 11.1465 20.236 11.1785 20.2436C11.194 20.2472 11.1564 20.2398 11.0922 20.2135C11.0518 20.197 10.847 20.114 10.6474 19.9013C10.3887 19.6256 10.1826 19.1665 10.2914 18.6357C10.3752 18.2264 10.6076 17.9939 10.6642 17.9387C10.7874 17.8187 10.8643 17.801 10.7037 17.8809L12.0407 20.5666C12.2215 20.4765 12.5176 20.3213 12.7573 20.0878C12.8722 19.9759 13.1372 19.6927 13.2304 19.2376C13.3485 18.661 13.1285 18.1612 12.8352 17.8486C12.601 17.599 12.3409 17.483 12.2268 17.4364C12.0889 17.38 11.9593 17.3454 11.8669 17.3236C11.6833 17.2803 11.481 17.2505 11.3196 17.2282C10.5379 17.1199 9.87539 17.0446 9.44641 16.8203L8.05627 19.4788ZM10.7037 17.8809C10.5118 17.9765 9.9321 18.2899 9.73976 19.0029C9.50179 19.885 10.0432 20.4926 10.2848 20.7016C10.5457 20.9273 10.8394 21.0575 11.0419 21.1338C11.2685 21.2191 11.5137 21.2849 11.7593 21.3359C12.7196 21.5354 14.0889 21.5891 15.4694 21.3478L14.953 18.3926C13.9337 18.5707 12.9469 18.5186 12.3693 18.3986C12.2304 18.3698 12.1422 18.3424 12.0988 18.3261C12.0312 18.3007 12.118 18.3207 12.2475 18.4327C12.3576 18.528 12.8429 19.0182 12.6362 19.7842C12.5508 20.101 12.3769 20.3027 12.2682 20.4042C12.1602 20.5049 12.0684 20.5528 12.0407 20.5666L10.7037 17.8809ZM15.4694 21.3478C16.4207 21.1816 17.2408 20.7459 17.8627 20.3918C18.5651 19.9919 18.9853 19.7212 19.4311 19.5533L18.3739 16.7458C17.6362 17.0235 16.8874 17.495 16.3783 17.7848C15.7888 18.1205 15.3549 18.3223 14.953 18.3926L15.4694 21.3478Z" fill="#7B8FAC" mask="url(#path-3-inside-1)"/>
<path d="M7.69412 22.6455C7.09779 21.6866 6.80985 18.2412 8.06213 16.693C9.07749 15.4378 9.77095 15.5171 10.1623 15.7263C10.889 14.7326 12.6325 13.9825 14.3552 14.0003C16.2083 14.0195 18.0716 14.4991 19.3308 16.2493C20.59 17.9995 20.8353 20.9164 20.1436 22.6455" stroke="#7B8FAC" stroke-width="1.5" stroke-linecap="round"/>
<rect width="29" height="10" rx="2" fill="#043071"/>
<path d="M11.9817 7.6207C11.7349 7.6207 11.4971 7.57499 11.2686 7.48356C11.04 7.38756 10.8389 7.24584 10.6651 7.05841C10.496 6.86641 10.3794 6.63099 10.3154 6.35213L11.1246 6.0367C11.1794 6.26984 11.28 6.45499 11.4263 6.59213C11.5726 6.7247 11.7554 6.79099 11.9749 6.79099C12.1943 6.79099 12.3771 6.71784 12.5234 6.57156C12.6697 6.42527 12.7429 6.24013 12.7429 6.01613C12.7429 5.7967 12.6697 5.61384 12.5234 5.46756C12.3817 5.3167 12.1989 5.24127 11.9749 5.24127C11.8377 5.24127 11.712 5.27099 11.5977 5.33041C11.488 5.38527 11.3943 5.4607 11.3166 5.5567L10.4457 5.16584L10.7131 2.8207H13.36V3.60927H11.4606L11.2891 4.70641L11.344 4.72013C11.5726 4.5327 11.8446 4.43899 12.16 4.43899C12.4206 4.43899 12.6629 4.50527 12.8869 4.63784C13.1154 4.77041 13.2983 4.95784 13.4354 5.20013C13.5726 5.43784 13.6411 5.70984 13.6411 6.01613C13.6411 6.32699 13.5703 6.60356 13.4286 6.84584C13.2869 7.08813 13.0903 7.27784 12.8389 7.41499C12.5874 7.55213 12.3017 7.6207 11.9817 7.6207ZM16.3287 7.6207C15.9356 7.6207 15.5904 7.51556 15.2933 7.30527C14.9961 7.09041 14.7653 6.79784 14.6007 6.42756C14.4407 6.0527 14.3607 5.63213 14.3607 5.16584C14.3607 4.69956 14.4407 4.28127 14.6007 3.91099C14.7653 3.53613 14.9961 3.24356 15.2933 3.03327C15.5904 2.81841 15.9356 2.71099 16.3287 2.71099C16.7219 2.71099 17.067 2.81841 17.3641 3.03327C17.6613 3.24356 17.8899 3.53613 18.0499 3.91099C18.2144 4.28127 18.2967 4.69956 18.2967 5.16584C18.2967 5.63213 18.2144 6.0527 18.0499 6.42756C17.8899 6.79784 17.6613 7.09041 17.3641 7.30527C17.067 7.51556 16.7219 7.6207 16.3287 7.6207ZM16.3287 6.77727C16.5481 6.77727 16.7379 6.7087 16.8979 6.57156C17.0624 6.42984 17.1859 6.23784 17.2681 5.99556C17.355 5.7487 17.3984 5.47213 17.3984 5.16584C17.3984 4.69041 17.3024 4.30413 17.1104 4.00699C16.9184 3.70527 16.6579 3.55441 16.3287 3.55441C16.0041 3.55441 15.7459 3.70527 15.5539 4.00699C15.3619 4.3087 15.2659 4.69499 15.2659 5.16584C15.2659 5.47213 15.307 5.7487 15.3893 5.99556C15.4761 6.23784 15.5996 6.42984 15.7596 6.57156C15.9241 6.7087 16.1139 6.77727 16.3287 6.77727ZM20.9559 7.6207C20.5628 7.6207 20.2177 7.51556 19.9205 7.30527C19.6234 7.09041 19.3925 6.79784 19.2279 6.42756C19.0679 6.0527 18.9879 5.63213 18.9879 5.16584C18.9879 4.69956 19.0679 4.28127 19.2279 3.91099C19.3925 3.53613 19.6234 3.24356 19.9205 3.03327C20.2177 2.81841 20.5628 2.71099 20.9559 2.71099C21.3491 2.71099 21.6942 2.81841 21.9914 3.03327C22.2885 3.24356 22.5171 3.53613 22.6771 3.91099C22.8417 4.28127 22.9239 4.69956 22.9239 5.16584C22.9239 5.63213 22.8417 6.0527 22.6771 6.42756C22.5171 6.79784 22.2885 7.09041 21.9914 7.30527C21.6942 7.51556 21.3491 7.6207 20.9559 7.6207ZM20.9559 6.77727C21.1754 6.77727 21.3651 6.7087 21.5251 6.57156C21.6897 6.42984 21.8131 6.23784 21.8954 5.99556C21.9822 5.7487 22.0257 5.47213 22.0257 5.16584C22.0257 4.69041 21.9297 4.30413 21.7377 4.00699C21.5457 3.70527 21.2851 3.55441 20.9559 3.55441C20.6314 3.55441 20.3731 3.70527 20.1811 4.00699C19.9891 4.3087 19.8931 4.69499 19.8931 5.16584C19.8931 5.47213 19.9342 5.7487 20.0165 5.99556C20.1034 6.23784 20.2268 6.42984 20.3868 6.57156C20.5514 6.7087 20.7411 6.77727 20.9559 6.77727ZM26.838 6.05041H25.6655V7.21613H24.87V6.05041H23.7043V5.25499H24.87V4.08927H25.6655V5.25499H26.838V6.05041Z" fill="white"/>
<rect x="5.49951" y="3.24988" width="3.18184" height="3.18184" transform="rotate(45 5.49951 3.24988)" fill="white"/>
<rect x="4.25" y="2" width="3.18184" height="3.18184" rx="1.59092" transform="rotate(45 4.25 2)" fill="white"/>
<rect x="6.75" y="2" width="3.18184" height="3.18184" rx="1.59092" transform="rotate(45 6.75 2)" fill="white"/>
<path d="M14 13L10 9H18L14 13Z" fill="#043071"/>
</svg>
