<svg width="37" height="41" viewBox="0 0 37 41" fill="none" xmlns="http://www.w3.org/2000/svg">
<path d="M14.8051 28.0115L18.0366 25L22.6382 25.9196C25.0345 26.3984 27.0307 28.0476 27.953 30.3105C28.3087 31.183 28.4916 32.1162 28.4916 33.0584V36.1699C28.4916 38.3791 26.7007 40.1699 24.4916 40.1699H5C2.79086 40.1699 1 38.3791 1 36.1699V34.0535C1 32.7852 1.30158 31.535 1.87985 30.4061L2.04998 30.074C3.14789 27.9308 5.15284 26.3961 7.50842 25.8959L11.7274 25L14.8051 28.0115Z" stroke="#7B8FAC" stroke-width="1.5" stroke-linecap="round"/>
<path d="M35.3783 4.8864C34.3242 2.37119 29.5811 2.37124 28.527 4.88631C27.0179 8.48746 31.0981 9.47234 32.2162 9.91682C33.7972 10.5454 36.5444 11.2681 35.9053 14.3184C35.1986 17.6909 29.5811 18.0912 28 14.3184" stroke="#043071" stroke-width="1.8" stroke-linecap="round"/>
<path d="M11.8389 24.7314V22M18.0002 24.5V21.5" stroke="#7B8FAC" stroke-width="1.5" stroke-linecap="round"/>
<path d="M9.05413 10.6889C9.63346 10.8788 10.2472 10.9801 10.7408 11.0484C10.6672 11.4801 10.9303 11.7882 11.083 11.9202C11.2556 12.0696 11.4687 12.17 11.6566 12.2407C11.8565 12.3159 12.0859 12.3787 12.3319 12.4298C13.3051 12.6319 14.745 12.6927 16.2045 12.4377C17.114 12.2787 17.926 11.8566 18.6253 11.4584C18.782 11.3691 18.9318 11.2821 19.0762 11.1981C19.3857 11.0181 19.6708 10.8524 19.9476 10.71C20.0209 10.8411 20.0959 10.9709 20.1701 11.0982C20.2078 11.1628 20.2453 11.2269 20.2825 11.2905C20.4458 11.5693 20.6039 11.8392 20.7512 12.1159C21.1163 12.8015 21.349 13.4122 21.349 13.9896C21.349 18.8051 18.4793 22.4026 14.6011 22.4026C10.7229 22.4026 7.85327 18.8051 7.85327 13.9896C7.85327 13.7805 7.9223 13.441 8.06654 12.9979C8.2055 12.571 8.39435 12.1067 8.58865 11.6708C8.75332 11.3013 8.9185 10.9597 9.05413 10.6889ZM12.0084 11.6443C12.0079 11.6442 12.0126 11.641 12.024 11.6351C12.0147 11.6415 12.009 11.6444 12.0084 11.6443Z" stroke="#7B8FAC" stroke-width="1.5"/>
<path d="M7.49796 14.8656C6.81748 13.7714 6.4889 9.8397 7.91791 8.07307C9.07656 6.64067 9.86789 6.73119 10.3145 6.96992C11.1438 5.83594 13.1333 4.98002 15.0991 5.00035C17.2137 5.02223 19.34 5.56948 20.7769 7.56674C22.2138 9.56399 22.4937 12.8925 21.7044 14.8656" stroke="#7B8FAC" stroke-width="1.5" stroke-linecap="round"/>
<path d="M32 1L32 19" stroke="#043071" stroke-width="1.8" stroke-linecap="round"/>
</svg>
