<svg width="74" height="90" viewBox="0 0 74 90" fill="none" xmlns="http://www.w3.org/2000/svg">
<path d="M27.0015 42.5549L36.257 51.8105" stroke="#7B8FAC" stroke-width="7" stroke-linecap="round"/>
<path d="M50.1157 37.9515L36.2568 51.8104" stroke="#7B8FAC" stroke-width="7" stroke-linecap="round"/>
<path d="M8.50095 23.2503C8.49026 22.7181 8.9367 22.2294 9.52792 22.203C23.2211 21.5915 32.3465 14.9811 35.9676 11.812C36.5015 11.3448 37.415 11.3605 37.9479 11.8605C41.3944 15.0937 50.0928 21.6338 64.4896 22.2081C65.077 22.2315 65.5215 22.716 65.5102 23.2476C64.7214 60.5704 41.9454 76.1742 37.3426 78.9532C37.1112 79.0928 36.8638 79.0956 36.6327 78.9647L36.1396 79.8346L36.6327 78.9646C32.022 76.3515 9.27002 61.5532 8.50095 23.2503Z" stroke="#7B8FAC" stroke-width="2" stroke-linejoin="round"/>
<path d="M2.53129 19.1557C2.52726 18.4441 3.15247 17.6693 4.14868 17.5993C19.3066 16.5343 29.8952 9.75182 35.0969 5.54847C36.0568 4.77282 37.7488 4.79082 38.7407 5.63763C43.7666 9.92842 54.0322 16.6209 69.9051 17.6164C70.889 17.6781 71.5017 18.4359 71.4998 19.1305C71.3741 63.7589 43.8507 82.4688 37.2793 86.3091C37.0365 86.451 36.7838 86.4559 36.5449 86.3348C30.0423 83.0377 2.79906 66.4846 2.53129 19.1557Z" stroke="#7B8FAC" stroke-width="5" stroke-linejoin="round"/>
</svg>
