<svg width="37" height="37" viewBox="0 0 37 37" fill="none" xmlns="http://www.w3.org/2000/svg">
<mask id="mask0" style="mask-type:alpha" maskUnits="userSpaceOnUse" x="0" y="0" width="37" height="37">
<path fill-rule="evenodd" clip-rule="evenodd" d="M36.3205 18.2359C36.3205 21.2186 35.6014 24.0333 34.3271 26.5162C35.3684 24.171 35.9342 21.5039 35.9342 18.6223C35.9342 13.2564 33.9724 8.42212 30.6315 5.03551C34.1346 8.34596 36.3205 13.0357 36.3205 18.2359ZM18.3537 0.0779003C23.1066 0.127184 27.4219 2.00243 30.6315 5.03551C27.5963 1.95876 23.4228 0.0769043 18.5478 0.0769043C18.483 0.0769043 18.4183 0.0772368 18.3537 0.0779003ZM0.00343741 18.4281C0.0796523 25.7783 4.5227 32.0819 10.8615 34.8681C4.45574 32.1681 0.00244141 26.1215 0.00244141 18.6223C0.00244141 18.5575 0.00277395 18.4928 0.00343741 18.4281ZM18.349 36.394C25.316 36.3236 31.3435 32.3296 34.3271 26.5162C31.6678 32.5055 25.9071 36.395 18.5478 36.395C18.4815 36.395 18.4152 36.3947 18.349 36.394ZM18.349 36.394C15.6804 36.3686 13.1467 35.8313 10.8615 34.8681C13.0955 35.85 15.5648 36.395 18.1615 36.395C18.2241 36.395 18.2866 36.3947 18.349 36.394ZM0.00343741 18.4281C0.106958 8.34141 8.26695 0.181421 18.3537 0.0779003C18.2897 0.0772368 18.2256 0.0769043 18.1615 0.0769043C8.13252 0.0769043 0.00244141 8.20699 0.00244141 18.2359C0.00244141 18.3001 0.00277395 18.3642 0.00343741 18.4281ZM18.9409 29.42H18.9364C17.0786 29.4191 15.2531 28.9534 13.6319 28.0693L7.7479 29.6124L9.32269 23.8623C8.35121 22.1797 7.84015 20.2707 7.841 18.315C7.84355 12.197 12.8229 7.21961 18.9409 7.21961C21.9099 7.22075 24.697 8.37644 26.7925 10.4736C28.8882 12.5711 30.0417 15.359 30.0405 18.3238C30.038 24.4421 25.0581 29.42 18.9409 29.42ZM9.7149 18.3164C9.71717 13.2313 13.8558 9.09436 18.9446 9.09436C21.4085 9.09521 23.725 10.0559 25.4667 11.7991C27.2085 13.5422 28.1672 15.8593 28.1664 18.3238C28.1641 23.4092 24.0255 27.5464 18.9406 27.5464H18.937C17.2815 27.5458 15.6578 27.1013 14.2415 26.2608L13.9044 26.061L10.4127 26.9767L11.3449 23.5733L11.1256 23.2244C10.2022 21.756 9.71434 20.059 9.7149 18.3164ZM22.4991 23.5999C23.032 23.5201 24.1398 22.929 24.371 22.2815C24.6022 21.6338 24.6022 21.0789 24.5326 20.9631C24.4768 20.87 24.3464 20.807 24.1532 20.7136C24.1062 20.6908 24.0554 20.6663 24.0012 20.6391C23.7239 20.5005 22.3605 19.8295 22.1061 19.7373C21.8519 19.6447 21.6669 19.5983 21.4821 19.8759C21.2973 20.1535 20.7656 20.7781 20.604 20.9631C20.4421 21.1479 20.2803 21.1711 20.0032 21.0325C19.9578 21.0097 19.8958 20.9828 19.8192 20.9496C19.4285 20.7801 18.6586 20.4461 17.7728 19.6563C16.9485 18.9211 16.3915 18.0131 16.23 17.7357C16.085 17.4871 16.1986 17.3522 16.3123 17.2171C16.3256 17.2014 16.3388 17.1857 16.3516 17.1698C16.6451 16.8059 16.9524 16.4066 17.0449 16.2215C17.1372 16.0364 17.0911 15.8746 17.0217 15.7356C16.9754 15.6429 16.712 15.002 16.4734 14.4214C16.3552 14.1339 16.2432 13.8611 16.1666 13.6772C15.9679 13.1998 15.7664 13.201 15.6047 13.202C15.5833 13.2021 15.5625 13.2022 15.5426 13.2013C15.381 13.1933 15.196 13.1916 15.0112 13.1916C14.8264 13.1916 14.5259 13.261 14.2715 13.5386C14.2552 13.5563 14.2371 13.5756 14.2174 13.5966C13.9288 13.9044 13.3008 14.574 13.3008 15.8514C13.3008 17.2085 14.2835 18.5197 14.4309 18.7164L14.4333 18.7197C14.4424 18.7318 14.4587 18.7552 14.482 18.7886C14.8143 19.265 16.5714 21.7838 19.171 22.9061C19.8329 23.1916 20.3493 23.3622 20.7523 23.4901C21.4167 23.701 22.0212 23.6712 22.4991 23.5999Z" fill="white"/>
</mask>
<g mask="url(#mask0)">
<ellipse cx="17.3887" cy="19.3949" rx="14.2954" ry="14.6818" fill="white"/>
</g>
</svg>
