<svg width="25" height="21" viewBox="0 0 25 21" fill="none" xmlns="http://www.w3.org/2000/svg">
<path d="M23.9699 0.902555C23.4638 0.401983 22.8563 0.677298 22.3249 0.877527C19.6168 1.92873 16.9087 2.9549 14.2006 3.98108C10.1005 5.55788 5.97516 7.13468 1.87508 8.71149C1.39421 8.88669 0.812101 9.03686 0.786792 9.61252C0.761483 10.3133 1.47014 10.3634 1.97632 10.5135C3.21647 10.914 4.48192 11.2394 5.69676 11.6899C6.58258 12.0403 7.26593 11.8901 8.0252 11.3895C11.6444 9.08692 15.2889 6.83434 18.9334 4.55673C19.2878 4.33148 19.6168 3.95605 20.1483 4.15628C20.1736 4.55673 19.8699 4.70691 19.6674 4.88211C16.8581 7.38497 14.0994 9.96292 11.2141 12.3907C10.1512 13.2667 10.1259 13.542 9.89808 15.5193C9.82215 16.2201 9.74622 16.9209 9.72091 17.6217C9.6956 17.9721 9.54375 18.5978 9.82215 18.6729C10.2524 18.9482 10.5814 18.5477 10.8851 18.2474C11.4925 17.6717 12.1253 17.1211 12.6821 16.4954C13.1376 15.9948 13.492 15.9948 14.0488 16.4203C15.542 17.5716 17.0606 18.6729 18.6044 19.7491C19.6927 20.5 20.452 20.2247 20.7304 18.9732C21.2872 16.4954 21.7681 13.9925 22.2742 11.4897C23.0841 8.53629 23.565 5.50782 24.1724 2.50439C24.2737 1.95376 24.4508 1.3781 23.9699 0.902555Z" fill="white"/>
</svg>
