<svg width="13" height="22" viewBox="0 0 13 22" fill="none" xmlns="http://www.w3.org/2000/svg">
<g clip-path="url(#clip0)">
<path d="M8.34244 8.41119C9.68351 8.41119 11.0205 8.41119 12.3939 8.41119C12.3576 8.72613 12.3212 9.02138 12.2849 9.31269C12.1556 10.2811 12.0264 11.2495 11.9011 12.214C11.8688 12.4738 11.8729 12.4738 11.5941 12.4738C10.5843 12.4738 9.57445 12.4738 8.5646 12.4738C8.48382 12.4738 8.40707 12.4738 8.30608 12.4738C8.30608 12.5683 8.30608 12.647 8.30608 12.7218C8.30608 15.9893 8.30608 17.7434 8.30608 21.0069C8.30608 21.2825 8.30608 21.2825 8.02333 21.2825C6.77112 21.2825 5.51891 21.2825 4.2667 21.2825C4.18591 21.2825 4.10917 21.2825 4.00414 21.2825C4.00414 17.834 4.00414 15.9223 4.00414 12.4699C2.80444 12.4699 1.63302 12.4699 0.441406 12.4699C0.441406 11.1039 0.441406 9.76541 0.441406 8.39938C1.62898 8.39938 2.80041 8.39938 4.0001 8.39938C4.0001 8.29703 4.0001 8.22223 4.0001 8.1435C4.0001 7.23019 4.0001 6.32082 4.0001 5.40752C4.0001 4.56114 4.12532 3.73444 4.47271 2.95104C5.15537 1.40393 6.39142 0.533929 8.05968 0.215059C8.78273 0.0772762 9.5179 0.0772762 10.2531 0.116643C10.96 0.15601 11.6628 0.203249 12.3657 0.242616C12.503 0.250489 12.5515 0.297729 12.5474 0.431576C12.5434 1.53384 12.5394 2.63611 12.5474 3.73837C12.5474 3.9234 12.4384 3.91552 12.3132 3.91552C11.5376 3.91946 10.7661 3.91552 9.99051 3.93127C9.79258 3.93521 9.58657 3.97064 9.39672 4.02181C8.74234 4.19109 8.38687 4.64381 8.35456 5.27367C8.30204 6.29327 8.32224 7.3168 8.31416 8.34033C8.31416 8.36002 8.32224 8.37183 8.34244 8.41119Z" fill="white"/>
</g>
<defs>
<clipPath id="clip0">
<rect width="12.106" height="21.1856" fill="white" transform="translate(0.441406 0.105957)"/>
</clipPath>
</defs>
</svg>
