<svg width="25" height="16" viewBox="0 0 25 16" fill="none" xmlns="http://www.w3.org/2000/svg">
<path fill-rule="evenodd" clip-rule="evenodd" d="M20.8993 9.043C20.8029 8.93434 20.7066 8.82567 20.7066 8.71701C20.7066 8.60835 20.8029 8.39102 20.8993 8.28235C22.2475 6.21774 23.3068 4.58778 24.4624 2.41451C24.8476 1.76253 24.8476 1.21921 24.7513 1.11054C24.655 0.893215 24.3661 0.675887 24.1735 0.675887H20.2251C19.7436 0.675887 19.2621 0.675887 18.9732 1.32787C18.2028 3.17516 17.0472 5.89175 15.9879 6.97839C15.7952 7.19572 15.6026 7.30438 15.3137 7.30438C15.0248 7.30438 14.8322 7.08705 14.8322 6.76106V1.21921C14.8322 0.893215 14.7359 0.567224 14.447 0.349896C14.1581 0.132568 13.8692 0.132568 13.5803 0.132568H10.306C9.34301 0.132568 8.7652 0.567224 8.7652 0.784551C8.7652 1.00188 9.24671 1.21921 9.53562 1.43653C9.82452 1.76253 10.1134 2.19718 10.1134 2.7405V6.54373C10.1134 6.86972 10.0171 7.19572 9.72822 7.41304C9.63192 7.52171 9.43932 7.52171 9.34301 7.52171C9.15041 7.52171 9.05411 7.41304 8.95781 7.30438C7.70588 5.45709 7.70588 5.23977 5.87614 1.5452C5.77984 1.32787 5.68354 1.21921 5.49094 1.00188C5.20203 0.784551 4.91312 0.784551 4.62422 0.784551H1.34995C0.38693 0.784551 0.579534 1.43653 0.675836 1.65386C1.73516 4.15313 2.79448 6.54373 4.04641 8.93434C5.49094 11.7596 6.83916 13.4982 9.05411 14.6935C9.82452 15.1282 10.6912 15.2368 11.558 15.2368H13.8692C14.1581 15.2368 14.6396 15.0195 14.6396 14.5849V12.6289C14.6396 12.0856 15.1211 11.8683 15.41 11.7596C15.6989 11.6509 15.9879 11.7596 16.1805 12.0856C17.4324 13.6069 17.3361 13.4982 18.4917 14.8022C18.6843 15.1282 19.0695 15.3455 19.4547 15.2368H23.692C23.9809 15.1282 24.1735 15.0195 24.2698 14.6935C24.3661 14.4762 24.5587 13.8242 24.2698 13.3896C23.2105 11.7596 22.0549 10.347 20.8993 9.043Z" fill="white"/>
</svg>
