<svg width="48" height="54" viewBox="0 0 48 54" fill="none" xmlns="http://www.w3.org/2000/svg">
<path d="M14.8051 40.8416L18.0366 37.8301L22.6382 38.7496C25.0345 39.2285 27.0307 40.8777 27.953 43.1406C28.3087 44.0131 28.4916 44.9463 28.4916 45.8885V49C28.4916 51.2091 26.7007 53 24.4916 53H5C2.79086 53 1 51.2091 1 49V46.8836C1 45.6152 1.30158 44.3651 1.87985 43.2362L2.04998 42.9041C3.14789 40.7608 5.15284 39.2262 7.50842 38.726L11.7274 37.8301L14.8051 40.8416Z" stroke="#7B8FAC" stroke-width="1.5" stroke-linecap="round"/>
<path d="M11.606 37.8301V35.0159M18.6416 37.8301V35.0159" stroke="#7B8FAC" stroke-width="1.5" stroke-linecap="round"/>
<path d="M9.37123 24.6885C9.97956 24.8768 10.6313 24.9753 11.1553 25.0415C11.1048 25.4723 11.3964 25.7654 11.5335 25.8739C11.7088 26.0126 11.9237 26.105 12.113 26.1701C12.3151 26.2397 12.548 26.2981 12.799 26.3458C13.7927 26.5345 15.2677 26.5918 16.7638 26.3527C17.6884 26.2049 18.5179 25.8115 19.2408 25.4352C19.4012 25.3516 19.5549 25.2699 19.7034 25.1909C20.0442 25.0097 20.3581 24.8428 20.6641 24.7015C20.7446 24.8337 20.827 24.9642 20.9083 25.0917C20.9474 25.1531 20.9862 25.2137 21.0247 25.2738C21.1932 25.5369 21.3555 25.7904 21.507 26.0504C21.8841 26.6981 22.113 27.2572 22.113 27.7743C22.113 32.2381 19.2012 35.673 15.1237 35.673C11.0463 35.673 8.13452 32.2381 8.13452 27.7743C8.13452 27.595 8.20082 27.2875 8.34924 26.8706C8.49126 26.4717 8.68482 26.0363 8.88481 25.626C9.0572 25.2723 9.23022 24.9456 9.37123 24.6885ZM12.4066 25.6133C12.4058 25.6131 12.4119 25.609 12.4272 25.6018C12.415 25.6099 12.4074 25.6135 12.4066 25.6133Z" stroke="#7B8FAC" stroke-width="1.5"/>
<path d="M8.23694 27.9803C7.52485 26.7866 6.74155 23.4101 8.23695 21.4828C9.44943 19.9202 10.2775 20.019 10.7448 20.2794C11.6127 19.0423 13.6946 18.1086 15.7518 18.1308C17.9646 18.1546 20.1897 18.7516 21.6933 20.9305C23.197 23.1093 23.162 26.1392 22.0939 27.8972" stroke="#7B8FAC" stroke-width="1.5" stroke-linecap="round"/>
<path d="M30.3844 18.3589L31.0409 18.7216L31.6556 17.6089H30.3844V18.3589ZM28.7248 21.363L28.0683 21.0003L28.7248 21.363ZM29.8567 22.4927L29.4927 21.8369H29.4927L29.8567 22.4927ZM37.3036 18.3589V17.6089H37.1094L36.9396 17.7031L37.3036 18.3589ZM24.75 5.15967C24.75 3.27656 26.2766 1.75 28.1597 1.75V0.25C25.4481 0.25 23.25 2.44813 23.25 5.15967H24.75ZM24.75 14.1992V5.15967H23.25V14.1992H24.75ZM28.1597 17.6089C26.2766 17.6089 24.75 16.0823 24.75 14.1992H23.25C23.25 16.9108 25.4481 19.1089 28.1597 19.1089V17.6089ZM30.3844 17.6089H28.1597V19.1089H30.3844V17.6089ZM29.3813 21.7257L31.0409 18.7216L29.7279 17.9962L28.0683 21.0003L29.3813 21.7257ZM29.4927 21.8369C29.4738 21.8474 29.4619 21.8502 29.4569 21.851C29.4515 21.8519 29.4472 21.8518 29.4428 21.8511C29.4327 21.8493 29.414 21.8421 29.3951 21.8233C29.3762 21.8044 29.369 21.7857 29.3672 21.7756C29.3664 21.7712 29.3663 21.7669 29.3672 21.7616C29.3681 21.7565 29.3708 21.7446 29.3813 21.7257L28.0683 21.0003C27.3 22.391 28.8317 23.9195 30.2208 23.1484L29.4927 21.8369ZM36.9396 17.7031L29.4927 21.8369L30.2208 23.1484L37.6676 19.0146L36.9396 17.7031ZM42.647 17.6089H37.3036V19.1089H42.647V17.6089ZM46.0566 14.1992C46.0566 16.0823 44.5301 17.6089 42.647 17.6089V19.1089C45.3585 19.1089 47.5566 16.9108 47.5566 14.1992H46.0566ZM46.0566 5.15966V14.1992H47.5566V5.15966H46.0566ZM42.647 1.75C44.5301 1.75 46.0566 3.27656 46.0566 5.15966H47.5566C47.5566 2.44813 45.3585 0.25 42.647 0.25V1.75ZM28.1597 1.75H42.647V0.25H28.1597V1.75Z" fill="#043071"/>
<circle cx="29.3066" cy="12.5291" r="1.5" fill="#043071"/>
<circle cx="35.3066" cy="12.5291" r="1.5" fill="#043071"/>
<circle cx="41.3066" cy="12.5291" r="1.5" fill="#043071"/>
</svg>
